<svg version="1.1" xmlns="http://www.w3.org/2000/svg" xmlns:xlink="http://www.w3.org/1999/xlink" width="106.66666" height="106.66666" viewBox="0,0,106.66666,106.66666"><g transform="translate(-186.66669,-126.66669)"><g data-paper-data="{&quot;isPaintingLayer&quot;:true}" fill-rule="nonzero" stroke-linejoin="miter" stroke-miterlimit="10" stroke-dasharray="" stroke-dashoffset="0" style="mix-blend-mode: normal"><path d="M186.66669,180.00002c0,-29.45519 23.87815,-53.33333 53.33333,-53.33333c29.45519,0 53.33333,23.87815 53.33333,53.33333c0,29.45519 -23.87815,53.33333 -53.33333,53.33333c-29.45519,0 -53.33333,-23.87815 -53.33333,-53.33333z" fill="#000000" stroke="none" stroke-width="0" stroke-linecap="butt"/><path d="M207.73399,204.33333c0,0 -6.87385,-7.51389 -8.11446,-17.07168c-1.18372,-9.11953 0.9056,-17.24917 1.86665,-19.40857c0.59709,-1.34161 4.15578,-10.24925 8.12976,-13.23301c0.63812,-0.47912 2.65222,-3.06037 6.03871,-5.45674c2.71452,-1.92086 6.78747,-3.05627 8.17693,-3.56168c5.24304,-1.90712 10.23573,-1.60165 10.23573,-1.60165" fill="none" stroke="#63f700" stroke-width="10.5" stroke-linecap="round"/><path d="M245.06731,145.5c0,-3.58985 2.91015,-6.5 6.5,-6.5c3.58985,0 6.5,2.91015 6.5,6.5c0,3.58985 -2.91015,6.5 -6.5,6.5c-3.58985,0 -6.5,-2.91015 -6.5,-6.5z" fill="#66ff00" stroke="none" stroke-width="0" stroke-linecap="butt"/><path d="M263.40065,154.83333c0,-3.58985 2.91015,-6.5 6.5,-6.5c3.58985,0 6.5,2.91015 6.5,6.5c0,3.58985 -2.91015,6.5 -6.5,6.5c-3.58985,0 -6.5,-2.91015 -6.5,-6.5z" fill="#66ff00" stroke="none" stroke-width="0" stroke-linecap="butt"/><path d="M275.73398,169.83333c0,-3.58985 2.91015,-6.5 6.5,-6.5c3.58985,0 6.5,2.91015 6.5,6.5c0,3.58985 -2.91015,6.5 -6.5,6.5c-3.58985,0 -6.5,-2.91015 -6.5,-6.5z" fill="#66ff00" stroke="none" stroke-width="0" stroke-linecap="butt"/><path d="M275.40065,192.16669c0,-3.58985 2.91015,-6.5 6.5,-6.5c3.58985,0 6.5,2.91015 6.5,6.5c0,3.58985 -2.91015,6.5 -6.5,6.5c-3.58985,0 -6.5,-2.91015 -6.5,-6.5z" fill="#66ff00" stroke="none" stroke-width="0" stroke-linecap="butt"/><path d="M265.06733,207.83333c0,-3.58985 2.91015,-6.5 6.5,-6.5c3.58985,0 6.5,2.91015 6.5,6.5c0,3.58985 -2.91015,6.5 -6.5,6.5c-3.58985,0 -6.5,-2.91015 -6.5,-6.5z" fill="#66ff00" stroke="none" stroke-width="0" stroke-linecap="butt"/><path d="M223.56787,180.25552c0,-0.544 4.56056,-6.18016 8.83333,-8.16667c4.27277,-1.9865 22.7937,-8.06379 23.9357,-7.06836c1.14243,0.99582 -8.30935,14.92447 -11.44627,19.47486c-0.61678,0.89469 -0.98943,1.42683 -0.98943,1.42683c0,0 -8.57682,9.16667 -12.16667,9.16667c-3.58985,0 -8.16667,-11.24348 -8.16667,-14.83333z" fill="#66ff00" stroke="none" stroke-width="0" stroke-linecap="butt"/></g></g></svg>