<svg version="1.1" xmlns="http://www.w3.org/2000/svg" xmlns:xlink="http://www.w3.org/1999/xlink" width="106.66666" height="106.66666" viewBox="0,0,106.66666,106.66666"><g transform="translate(-186.66669,-126.66668)"><g data-paper-data="{&quot;isPaintingLayer&quot;:true}" fill-rule="nonzero" stroke-linecap="butt" stroke-linejoin="miter" stroke-miterlimit="10" stroke-dasharray="" stroke-dashoffset="0" style="mix-blend-mode: normal"><path d="M186.66669,180.00001c0,-29.45519 23.87815,-53.33333 53.33333,-53.33333c29.45519,0 53.33333,23.87815 53.33333,53.33333c0,29.45519 -23.87815,53.33333 -53.33333,53.33333c-29.45519,0 -53.33333,-23.87815 -53.33333,-53.33333z" fill="#000000" stroke="none" stroke-width="0"/><path d="M279.87898,200.15768l-39.4587,22.71959h-0.71998l-39.34347,-22.74014l-0.23404,-0.45825l-0.25637,-39.06655l0.3582,-0.66013l39.29344,-22.82946h0.35999h0.35999l39.26039,22.82679l0.3582,0.68514l0.27692,39.05047zM265.45704,162.24345l-11.9842,-6.95773l-0.45468,28.24361l11.98688,6.9345zM278.24786,161.05629l-37.99908,-21.92994v37.21657l11.64564,6.63615l0.63244,-28.54286l0.71998,-0.40733l12.93375,7.48655l0.2394,0.42252l-0.4654,29.07525l12.75688,7.38025zM201.42877,161.05361l0.17151,37.32287l24.6848,-14.2951l13.07042,-7.56337v-37.39166zM277.97095,199.69138l-3.12915,-1.81067l-34.87351,-20.06477l-34.32325,19.90666l-3.38641,1.97414l37.80256,21.92458z" fill="#63f700" stroke="#63f700" stroke-width="2"/><path d="M214.34376,178.33761v-14.49073l0.17687,-0.41359l14.31207,-8.44504l0.69676,0.41269v14.49073l-0.18759,0.41359l-14.32369,8.44504zM215.23704,177.50061l13.39915,-7.88227v-13.37949l-13.39915,7.88227z" fill="#63f700" stroke="#63f700" stroke-width="2"/><text transform="translate(218.90625,204.51875) scale(0.5,0.5)" font-size="40" xml:space="preserve" fill="#63f700" fill-rule="nonzero" stroke="none" stroke-width="1" stroke-linecap="butt" stroke-linejoin="miter" stroke-miterlimit="10" stroke-dasharray="" stroke-dashoffset="0" font-family="&quot;Flexi_IBM_VGA_True_437&quot;, Sans Serif" font-weight="normal" text-anchor="start" style="mix-blend-mode: normal"><tspan x="0" dy="0">Rooms</tspan></text></g></g></svg>