<svg version="1.1" xmlns="http://www.w3.org/2000/svg" xmlns:xlink="http://www.w3.org/1999/xlink" width="106.66666" height="106.66666" viewBox="0,0,106.66666,106.66666"><g transform="translate(-186.66669,-126.66668)"><g data-paper-data="{&quot;isPaintingLayer&quot;:true}" fill-rule="nonzero" stroke-linecap="butt" stroke-linejoin="miter" stroke-miterlimit="10" stroke-dasharray="" stroke-dashoffset="0" style="mix-blend-mode: normal"><path d="M186.66669,180.00001c0,-29.45519 23.87815,-53.33333 53.33333,-53.33333c29.45519,0 53.33333,23.87815 53.33333,53.33333c0,29.45519 -23.87815,53.33333 -53.33333,53.33333c-29.45519,0 -53.33333,-23.87815 -53.33333,-53.33333z" fill="#000000" stroke="none" stroke-width="0"/><path d="M278.375,155.33035v49.33928c0,4.65982 -3.56339,8.22321 -8.22321,8.22321h-60.30357c-4.65982,0 -8.22321,-3.56339 -8.22321,-8.22321v-49.33928c0,-4.65982 3.56339,-8.22321 8.22321,-8.22321h60.30357c4.65982,0 8.22321,3.56339 8.22321,8.22321zM220.81251,158.07142c0,0.82232 0.27411,1.37054 0.82232,1.91875c0.54821,0.54821 1.09643,0.82232 1.91875,0.82232c0.82232,0 1.37054,-0.27411 1.91875,-0.82232c0.54821,-0.54821 0.82232,-1.09643 0.82232,-1.91875c0,-0.27411 0,-0.82232 -0.27411,-1.09643c0,-0.27411 -0.27411,-0.54821 -0.54821,-0.82232c-0.82232,-0.82232 -1.91875,-1.09643 -3.01518,-0.54821c-0.27411,0 -0.54821,0.27411 -0.82232,0.54821c-0.27411,0.27411 -0.27411,0.54821 -0.54821,0.82232c-0.27411,0.27411 -0.27411,0.82232 -0.27411,1.09643zM213.41161,159.99017c0.54821,0.54821 1.09643,0.82232 1.91875,0.82232c0.82232,0 1.37054,-0.27411 1.91875,-0.82232c0.27411,-0.27411 0.54821,-0.54821 0.54821,-0.82232c0.27411,-0.27411 0.27411,-0.82232 0.27411,-1.09643c0,-0.27411 0,-0.82232 -0.27411,-1.09643c0,-0.27411 -0.27411,-0.54821 -0.54821,-0.82232l-0.27411,-0.27411c-0.27411,0 -0.27411,-0.27411 -0.54821,-0.27411c-0.27411,-0.27411 -0.27411,-0.27411 -0.54821,-0.27411c-0.27411,0 -0.82232,0 -1.09643,0c-0.27411,0 -0.27411,0 -0.54821,0.27411c-0.27411,0 -0.27411,0.27411 -0.54821,0.27411l-0.27411,0.27411c-0.54821,0.54821 -0.82232,1.09643 -0.82232,1.91875c0,0.82232 0.27411,1.37054 0.82232,1.91875zM228.2134,183.56339l-8.22321,-8.22321c-1.09643,-1.09643 -2.74107,-1.09643 -3.8375,0c-1.09643,1.09643 -1.09643,2.74107 0,3.8375l6.30446,6.30446l-6.30446,6.30446c-1.09643,1.09643 -1.09643,2.74107 0,3.8375c0.54821,0.54821 1.09643,0.82232 1.91875,0.82232c0.82232,0 1.37054,-0.27411 1.91875,-0.82232l8.22321,-8.22321c1.09643,-1.09643 1.09643,-2.74107 0,-3.8375zM230.68036,160.53839c0.27411,0.27411 0.82232,0.27411 1.09643,0.27411c0.82232,0 1.37054,-0.27411 1.91875,-0.82232c0.27411,-0.27411 0.27411,-0.54821 0.54821,-0.82232c0.27411,-0.27411 0.27411,-0.82232 0.27411,-1.09643c0,-0.27411 0,-0.82232 -0.27411,-1.09643c0,-0.27411 -0.27411,-0.54821 -0.54821,-0.82232c-1.09643,-1.09643 -2.74107,-1.09643 -3.8375,0c-0.27411,0.27411 -0.27411,0.54821 -0.54821,0.82232c-0.27411,0.27411 -0.27411,0.82232 -0.27411,1.09643c0,0.27411 0,0.82232 0.27411,1.09643c0,0.27411 0.27411,0.54821 0.54821,0.82232c0.27411,0.27411 0.54821,0.54821 0.82232,0.54821zM248.22322,193.70535c0,-1.64464 -1.09643,-2.74107 -2.74107,-2.74107h-10.96429c-1.64464,0 -2.74107,1.09643 -2.74107,2.74107c0,1.64464 1.09643,2.74107 2.74107,2.74107h10.96429c1.64464,0 2.74107,-1.09643 2.74107,-2.74107z" fill="none" stroke="#63f700" stroke-width="3.5"/></g></g></svg>