<svg version="1.1" xmlns="http://www.w3.org/2000/svg" xmlns:xlink="http://www.w3.org/1999/xlink" width="106.66666" height="106.66666" viewBox="0,0,106.66666,106.66666"><g transform="translate(-186.66667,-126.66667)"><g data-paper-data="{&quot;isPaintingLayer&quot;:true}" fill-rule="nonzero" stroke="none" stroke-linecap="butt" stroke-linejoin="miter" stroke-miterlimit="10" stroke-dasharray="" stroke-dashoffset="0" style="mix-blend-mode: normal"><path d="M186.66667,180c0,-29.45519 23.87815,-53.33333 53.33333,-53.33333c29.45519,0 53.33333,23.87815 53.33333,53.33333c0,29.45519 -23.87815,53.33333 -53.33333,53.33333c-29.45519,0 -53.33333,-23.87815 -53.33333,-53.33333z" fill="#000000" stroke-width="0"/><text transform="translate(195.61301,201.04272) scale(1.75356,1.75356)" font-size="40" xml:space="preserve" fill="#62ff00" fill-rule="nonzero" stroke="none" stroke-width="1" stroke-linecap="butt" stroke-linejoin="miter" stroke-miterlimit="10" stroke-dasharray="" stroke-dashoffset="0" font-family="&quot;Flexi_IBM_VGA_True_437&quot;, Sans Serif" font-weight="normal" text-anchor="start" style="mix-blend-mode: normal"><tspan x="0" dy="0">&lt;/&gt;</tspan></text><path d="M247.32895,176.12981c0.45454,0.05682 0.92171,0.10732 1.05428,0.10732c0.12626,0.00631 0.21464,0.03157 0.19571,0.06313c-0.01894,0.03157 0.0505,0.04419 0.15782,0.02525c0.10732,-0.01262 0.18308,-0.00631 0.17046,0.01262c-0.01262,0.02525 0.19571,0.0947 0.46085,0.15151c0.26515,0.06313 0.8207,0.22727 1.23736,0.35984c0.41035,0.13257 0.7765,0.22727 0.81438,0.20202c0.03157,-0.01894 0.0442,-0.00631 0.01894,0.03157c-0.0505,0.08207 0.18308,0.16414 0.28409,0.10101c0.04419,-0.02525 0.05682,-0.01894 0.03156,0.02525c-0.0505,0.08207 0.18308,0.16414 0.28409,0.10101c0.0505,-0.03157 0.05682,-0.01894 0.02525,0.03788c-0.03788,0.06313 -0.02525,0.07576 0.05682,0.04419c0.06944,-0.03157 0.0947,-0.01894 0.06313,0.03157c-0.03157,0.0505 -0.00631,0.05682 0.07576,0.02525c0.06313,-0.02525 0.09469,-0.02525 0.06944,0c-0.06313,0.06313 0.70706,0.41666 0.79544,0.35984c0.03788,-0.02525 0.0442,-0.00631 0.01263,0.04419c-0.03788,0.06313 -0.02525,0.07576 0.0505,0.0442c0.06313,-0.02525 0.10101,-0.01263 0.08838,0.03787c-0.00631,0.04419 0.03788,0.06944 0.09469,0.06944c0.06313,-0.00631 0.0947,0.01894 0.06944,0.05682c-0.02525,0.03788 0,0.0505 0.06944,0.02525c0.06944,-0.03157 0.09469,-0.01894 0.06313,0.03157c-0.03157,0.0505 -0.01262,0.05682 0.05682,0.03157c0.06313,-0.02525 0.10101,-0.01262 0.08838,0.03788c-0.00631,0.04419 0.03788,0.06944 0.09469,0.06944c0.06313,-0.00631 0.0947,0.01894 0.06944,0.05682c-0.02525,0.04419 0,0.0505 0.08207,0.01894c0.06313,-0.02525 0.09469,-0.02525 0.06944,0c-0.06313,0.06313 0.19571,0.23358 0.27146,0.18308c0.03788,-0.02525 0.05682,-0.00631 0.0505,0.04419c-0.01262,0.04419 0.03157,0.07575 0.08838,0.07575c0.06313,-0.00631 0.09469,0.01262 0.07576,0.04419c-0.03157,0.0505 0.06313,0.08207 0.18308,0.06313c0.03157,-0.00631 0.03788,0.01894 0.01262,0.05682c-0.03788,0.05682 0.04419,0.08838 0.17676,0.06944c0.02525,0 0.03788,0.03157 0.03157,0.06944c-0.01262,0.04419 0.03157,0.08207 0.08838,0.08207c0.05682,0 0.12626,0.02525 0.15783,0.05682c0.03157,0.03157 0.01262,0.03788 -0.03788,0.00631c-0.06313,-0.03788 -0.07576,-0.02525 -0.04419,0.02525c0.03157,0.04419 0.08838,0.06313 0.13889,0.04419c0.04419,-0.01894 0.10101,0 0.12626,0.03788c0.03157,0.04419 0.01262,0.0505 -0.04419,0.01894c-0.06944,-0.03788 -0.06944,-0.03156 -0.01894,0.02525c0.03788,0.04419 0.12626,0.08838 0.18939,0.09469c0.06944,0.01262 0.11995,0.0505 0.11995,0.09469c0,0.08838 0.16414,0.20202 0.22727,0.15783c0.02525,-0.01262 0.06944,0.00631 0.09469,0.04419c0.03157,0.0505 0.01262,0.06313 -0.04419,0.03157c-0.0505,-0.02525 -0.03157,-0.00631 0.03157,0.0505c0.06313,0.0505 0.13889,0.08207 0.16414,0.06944c0.02525,-0.01894 0.10101,0.03157 0.16414,0.11364l0.11995,0.13889l-0.15783,-0.12626l-0.15783,-0.12626l0.15783,0.17676c0.08207,0.09469 0.18308,0.16414 0.22727,0.1452c0.03788,-0.01262 0.18308,0.08838 0.31565,0.23358l0.24621,0.26515l-0.25883,-0.22096c-0.13889,-0.11995 -0.10101,-0.06944 0.08838,0.11364c0.18308,0.18308 0.35984,0.31565 0.38509,0.30303c0.06313,-0.03788 0.39772,0.30302 0.35353,0.35353c-0.02525,0.01894 0.11364,0.18939 0.29671,0.37878c0.18308,0.18939 0.23358,0.22727 0.11363,0.08838l-0.22095,-0.25883l0.26515,0.24621c0.1452,0.13257 0.24621,0.27778 0.23358,0.32197c-0.01894,0.04419 0.09469,0.18308 0.25252,0.30934c0.27146,0.22727 0.61237,0.65024 0.41035,0.51136c-0.0505,-0.03788 -0.01894,0.00631 0.06944,0.09469c0.08838,0.08838 0.13257,0.1452 0.09469,0.12626c-0.03788,-0.01894 0.00631,0.03788 0.09469,0.11995c0.08838,0.08207 0.11364,0.12626 0.06313,0.10101c-0.0505,-0.02525 -0.02525,0.01894 0.06313,0.0947c0.08838,0.07576 0.11995,0.11995 0.06944,0.09469c-0.05682,-0.03157 -0.0505,0.00631 0.02525,0.11995c0.10732,0.15783 0.21464,0.2399 0.11995,0.08838c-0.02525,-0.04419 -0.01894,-0.05051 0.03156,-0.02525c0.03788,0.02525 0.0505,0.07576 0.03157,0.11364c-0.02525,0.03788 0.02525,0.12626 0.10732,0.18939c0.08207,0.06944 0.11363,0.10732 0.06944,0.08207c-0.06944,-0.03788 -0.07575,-0.01894 -0.02525,0.06944c0.07576,0.13889 0.29671,0.41035 0.23358,0.2904c-0.06944,-0.13257 0.02525,-0.08207 0.10101,0.05682c0.0505,0.10101 0.0505,0.12626 -0.00631,0.08838c-0.11995,-0.07576 0.12626,0.36616 0.27777,0.49242c0.06944,0.06313 0.0947,0.10101 0.05051,0.07576c-0.06313,-0.03157 -0.06313,-0.00632 -0.00631,0.11994c0.04419,0.08838 0.10101,0.1452 0.12626,0.12626c0.03157,-0.01894 0.03788,0.01894 0.01262,0.07575c-0.02525,0.07576 -0.01894,0.0947 0.03157,0.06313c0.0505,-0.03157 0.06313,-0.00632 0.03156,0.06313c-0.02525,0.07576 -0.01894,0.0947 0.03157,0.06313c0.0505,-0.03157 0.06313,-0.00632 0.03157,0.06313c-0.02525,0.07576 -0.01894,0.0947 0.03157,0.06313c0.0505,-0.03157 0.06313,-0.00632 0.03156,0.06313c-0.02525,0.07576 -0.01894,0.0947 0.03157,0.06313c0.0505,-0.03157 0.06313,-0.00631 0.03157,0.06313c-0.03157,0.08207 -0.01894,0.09469 0.04419,0.05682c0.05682,-0.03157 0.06944,-0.02525 0.03788,0.02525c-0.05682,0.09469 0.01894,0.33459 0.09469,0.2904c0.03157,-0.01894 0.03788,0.01262 0.01263,0.06944c-0.02525,0.06944 -0.01894,0.0947 0.02525,0.06944c0.04419,-0.03157 0.05682,0.00631 0.03157,0.09469c-0.01894,0.08838 -0.00631,0.11995 0.03788,0.08838c0.0505,-0.03157 0.06313,-0.00631 0.03157,0.06313c-0.03157,0.08207 -0.01894,0.09469 0.04419,0.05682c0.05682,-0.03157 0.06944,-0.02525 0.03788,0.02525c-0.05682,0.08838 0.01262,0.33459 0.08838,0.2904c0.02525,-0.01894 0.03788,0.03156 0.01262,0.10732c-0.01894,0.08207 -0.00631,0.11995 0.03157,0.0947c0.04419,-0.03157 0.05682,0.00631 0.03157,0.09469c-0.02525,0.10101 -0.01263,0.11995 0.0505,0.08207c0.0505,-0.03157 0.06944,-0.02525 0.03788,0.01894c-0.05682,0.08838 0.02525,0.39772 0.08838,0.35984c0.03157,-0.01894 0.03788,0.03157 0.01262,0.10732c-0.02525,0.10101 -0.01263,0.11995 0.0505,0.08207c0.0505,-0.03157 0.06944,-0.02525 0.03788,0.01894c-0.0505,0.08838 0.01894,0.40404 0.08838,0.35984c0.02525,-0.01262 0.03157,0.04419 0.01263,0.13889c-0.02525,0.11995 -0.01263,0.15151 0.0505,0.11364c0.05682,-0.03157 0.06944,-0.02525 0.03788,0.01894c-0.05682,0.09469 0.15782,1.09216 0.22727,1.04797c0.02525,-0.01894 0.03157,0.00631 0.01894,0.05682c-0.01894,0.04419 0.00631,0.35353 0.06313,0.68181c0.18308,1.13003 0.25252,2.60097 0.17045,3.72469c-0.06944,0.97852 -0.25252,2.26007 -0.39772,2.79667c-0.03788,0.13257 -0.0505,0.28409 -0.03157,0.33459c0.01894,0.0505 0.00631,0.06944 -0.02525,0.0505c-0.03788,-0.01894 -0.06313,0.00632 -0.06313,0.06313c0,0.0505 -0.10101,0.41035 -0.22727,0.78913c-0.11995,0.38509 -0.20202,0.726 -0.17676,0.77019c0.02525,0.04419 0.01894,0.0505 -0.02525,0.02525c-0.06944,-0.04419 -0.10101,0.04419 -0.0947,0.25883c0.00631,0.04419 -0.01262,0.06944 -0.03788,0.05051c-0.06944,-0.03788 -0.20833,0.39772 -0.15782,0.47979c0.03157,0.0505 0.01894,0.05682 -0.03788,0.02525c-0.06313,-0.03788 -0.07576,-0.02525 -0.04419,0.05682c0.02525,0.05682 0.01894,0.08838 -0.01263,0.06944c-0.07576,-0.04419 -0.15151,0.19571 -0.09469,0.2904c0.03157,0.0505 0.01894,0.05682 -0.03788,0.02525c-0.06313,-0.03788 -0.07576,-0.02525 -0.04419,0.05682c0.03157,0.06944 0.01894,0.09469 -0.03157,0.06313c-0.0505,-0.03157 -0.05682,-0.01262 -0.03157,0.06313c0.03157,0.06944 0.01894,0.09469 -0.03156,0.06313c-0.0505,-0.03157 -0.05682,-0.01262 -0.03157,0.06313c0.03157,0.06944 0.01894,0.0947 -0.03157,0.06313c-0.0505,-0.03157 -0.05682,-0.01263 -0.03157,0.06313c0.03157,0.06944 0.01894,0.0947 -0.03156,0.06313c-0.0505,-0.03157 -0.05682,-0.01263 -0.03157,0.06313c0.03157,0.06944 0.01894,0.0947 -0.03157,0.06313c-0.0505,-0.03157 -0.05682,-0.01263 -0.03157,0.06313c0.03157,0.06944 0.01894,0.0947 -0.03156,0.06313c-0.0505,-0.03157 -0.05682,-0.00631 -0.02525,0.07576c0.02525,0.06313 0.02525,0.09469 0,0.06944c-0.06313,-0.06313 -0.22727,0.19571 -0.17676,0.28409c0.03157,0.04419 0.01894,0.05051 -0.03788,0.01894c-0.06313,-0.03788 -0.07576,-0.02525 -0.04419,0.05682c0.02525,0.05682 0.01894,0.09469 -0.01263,0.07576c-0.03157,-0.01894 -0.07576,0.00631 -0.09469,0.06313c-0.02525,0.05682 -0.01262,0.08207 0.03157,0.0505c0.0505,-0.02525 0.04419,0 0,0.0947c-0.04419,0.06944 -0.08839,0.13257 -0.10732,0.13257c-0.01894,0 -0.01262,-0.03157 0.00631,-0.06313c0.01894,-0.03157 0.02525,-0.06313 0.00632,-0.06313c-0.01894,0 -0.06313,0.06313 -0.10732,0.13257c-0.04419,0.09469 -0.0505,0.11995 0,0.09469c0.04419,-0.03157 0.05682,-0.00631 0.03157,0.05051c-0.01894,0.05682 -0.06313,0.08207 -0.0947,0.06313c-0.03157,-0.01894 -0.05682,-0.02525 -0.05682,-0.01262c0,0.01262 3.13127,3.14389 6.95697,6.96328l6.96328,6.94435l-6.91278,-6.94435l-6.91278,-6.94435l6.91278,6.90016c3.84464,3.83202 6.9191,6.95065 6.92541,7.01379c0.00631,0.06944 -0.04419,0.17046 -0.10732,0.22727c-0.06944,0.06313 -0.10732,0.13889 -0.08207,0.17676c0.01894,0.03157 0.00631,0.04419 -0.02525,0.02525c-0.08207,-0.0505 -0.22727,0.10732 -0.15782,0.17676c0.02525,0.03157 0.01262,0.03156 -0.02525,0.01262c-0.08838,-0.0505 -0.23358,0.10732 -0.16414,0.17677c0.02525,0.03157 0.01262,0.03156 -0.02525,0.01262c-0.08838,-0.0505 -0.23358,0.10732 -0.16413,0.17676c0.02525,0.03157 0.01262,0.03156 -0.02525,0.01262c-0.08838,-0.0505 -0.23358,0.10732 -0.16414,0.17677c0.02525,0.03157 0.01262,0.03156 -0.02525,0.01262c-0.08838,-0.0505 -0.23358,0.10732 -0.16414,0.17676c0.02525,0.03157 0.01263,0.03157 -0.02525,0.01263c-0.08838,-0.0505 -0.23358,0.10732 -0.16414,0.17676c0.02525,0.03157 0.01262,0.03156 -0.02525,0.01262c-0.08838,-0.0505 -0.23358,0.10732 -0.16414,0.17676c0.02525,0.03157 0.01263,0.03157 -0.02525,0.01263c-0.08838,-0.0505 -0.23358,0.10732 -0.16414,0.17676c0.02525,0.03157 0.01262,0.03156 -0.02525,0.01262c-0.08838,-0.0505 -0.23358,0.10732 -0.16414,0.17677c0.02525,0.03157 0.01262,0.03156 -0.02525,0.01262c-0.08838,-0.0505 -0.23358,0.10732 -0.16414,0.17676c0.02525,0.03157 0.01263,0.03156 -0.02525,0.01262c-0.08838,-0.0505 -0.23358,0.10732 -0.16414,0.17677c0.02525,0.03157 0.01262,0.03156 -0.02525,0.01262c-0.08838,-0.0505 -0.23358,0.10732 -0.16414,0.17676c0.02525,0.03157 0.01263,0.03157 -0.02525,0.01263c-0.08838,-0.0505 -0.23358,0.10732 -0.16414,0.17676c0.02525,0.03157 0.01262,0.03156 -0.02525,0.01262c-0.08838,-0.0505 -0.23358,0.10732 -0.16414,0.17676c0.02525,0.03157 0.01263,0.03157 -0.02525,0.01263c-0.08838,-0.0505 -0.23358,0.10732 -0.16414,0.17676c0.02525,0.03157 0.01262,0.03156 -0.02525,0.01262c-0.08838,-0.0505 -0.23358,0.10732 -0.16414,0.17677c0.02525,0.03157 0.01262,0.03156 -0.02525,0.01262c-0.08838,-0.0505 -0.23358,0.10732 -0.16414,0.17676c0.02525,0.03157 0.01263,0.03156 -0.02525,0.01262c-0.08838,-0.0505 -0.23358,0.10732 -0.16414,0.17677c0.02525,0.03157 0.01262,0.03156 -0.02525,0.01262c-0.08838,-0.0505 -0.23358,0.10732 -0.16414,0.17676c0.02525,0.03157 0.01263,0.03157 -0.02525,0.01263c-0.08838,-0.0505 -0.23358,0.10732 -0.16414,0.17676c0.02525,0.03157 0.01262,0.03156 -0.02525,0.01262c-0.08838,-0.0505 -0.23358,0.10732 -0.16414,0.17676c0.02525,0.03157 0.01263,0.03157 -0.02525,0.01263c-0.08838,-0.0505 -0.23358,0.10732 -0.16414,0.17676c0.02525,0.03157 0.01262,0.03156 -0.02525,0.01262c-0.08838,-0.0505 -0.23358,0.10732 -0.16414,0.17677c0.02525,0.03157 0.01262,0.03156 -0.02525,0.01262c-0.08838,-0.0505 -0.23358,0.10732 -0.16414,0.17676c0.02525,0.03157 0.01263,0.03157 -0.02525,0.01263c-0.08838,-0.0505 -0.23358,0.10732 -0.16414,0.17676c0.02525,0.03157 0.01262,0.03156 -0.02525,0.01262c-0.08838,-0.0505 -0.23358,0.10732 -0.16414,0.17676c0.02525,0.03157 0.01263,0.03157 -0.02525,0.01263c-0.04419,-0.02525 -0.10732,0 -0.15151,0.04419c-0.03788,0.0505 -0.12626,0.08838 -0.18939,0.08207c-0.06944,-0.00631 -3.12495,-3.01763 -7.05167,-6.95697l-6.93172,-6.94435l6.97591,6.94435l6.97591,6.94434l-6.94435,-6.96328c-3.81939,-3.8257 -6.9696,-6.94434 -7.00747,-6.93172c-0.03157,0.01262 -0.05682,0.0505 -0.05051,0.08838c0.01262,0.04419 -0.02525,0.05682 -0.08838,0.03157c-0.06313,-0.02525 -0.08838,-0.01263 -0.06313,0.02525c0.02525,0.03788 -0.00631,0.06313 -0.06944,0.05682c-0.05682,0 -0.10101,0.02525 -0.09469,0.06944c0.01262,0.0505 -0.02525,0.06313 -0.08838,0.03788c-0.07576,-0.03157 -0.08838,-0.01894 -0.0505,0.04419c0.03157,0.05682 0.02525,0.06944 -0.01894,0.03788c-0.08838,-0.05682 -0.59974,0.23358 -0.53661,0.30303c0.02525,0.02525 -0.00631,0.02525 -0.06944,0c-0.08207,-0.03157 -0.10732,-0.02525 -0.07575,0.02525c0.03157,0.0505 0.00631,0.06313 -0.06313,0.03157c-0.07576,-0.02525 -0.09469,-0.01894 -0.06313,0.03157c0.03157,0.0505 0.00631,0.06313 -0.06313,0.03156c-0.07576,-0.02525 -0.0947,-0.01894 -0.06313,0.03157c0.03157,0.0505 0.00632,0.06313 -0.06313,0.03157c-0.07576,-0.02525 -0.0947,-0.01894 -0.06313,0.03157c0.03157,0.0505 0.00632,0.06313 -0.06313,0.03157c-0.07576,-0.02525 -0.0947,-0.01894 -0.06313,0.03156c0.03157,0.0505 0.00632,0.06313 -0.06313,0.03157c-0.08207,-0.03157 -0.0947,-0.01894 -0.05682,0.04419c0.03157,0.05682 0.02525,0.06944 -0.02525,0.03788c-0.10101,-0.06313 -0.33459,0.01894 -0.28409,0.10101c0.02525,0.03788 0.01263,0.0505 -0.01894,0.03157c-0.10101,-0.06313 -0.46717,0.08207 -0.41666,0.16414c0.01894,0.03788 0.00632,0.0442 -0.03787,0.01894c-0.08838,-0.05682 -0.51767,0.08838 -0.47348,0.16414c0.01894,0.02525 -0.00631,0.03787 -0.0505,0.01894c-0.11995,-0.04419 -1.38887,0.37247 -1.33205,0.44191c0.02525,0.02525 0.01262,0.03157 -0.02525,0.00631c-0.11364,-0.06313 -0.53029,0.02525 -0.47979,0.10732c0.01894,0.03788 0.00631,0.0442 -0.03157,0.01894c-0.08207,-0.0505 -0.58711,0.02525 -0.54923,0.08207c0.01262,0.02525 -0.06313,0.03156 -0.17046,0.01894c-0.11995,-0.01894 -0.17676,-0.00631 -0.15782,0.03157c0.02525,0.03788 -0.01894,0.0505 -0.10732,0.03788c-0.07576,-0.01894 -0.30934,0 -0.51767,0.03788c-0.20202,0.03788 -0.84595,0.10101 -1.42043,0.1452c-1.23736,0.08207 -2.69567,0.00631 -3.88883,-0.21464c-0.41035,-0.07576 -0.83332,-0.13889 -0.94696,-0.13889c-0.10732,-0.00631 -0.18308,-0.03157 -0.16414,-0.06313c0.01894,-0.03157 -0.03788,-0.04419 -0.12626,-0.02525c-0.09469,0.01894 -0.15782,0.01263 -0.13889,-0.01262c0.03788,-0.06313 -0.5808,-0.20833 -0.66918,-0.15151c-0.0505,0.03157 -0.05682,0.01894 -0.02525,-0.03788c0.03788,-0.06313 0.01894,-0.07576 -0.08207,-0.0505c-0.07576,0.02525 -0.12626,0.01894 -0.10732,-0.00631c0.03788,-0.06944 -0.46086,-0.20833 -0.55555,-0.15783c-0.03788,0.02525 -0.05682,0.01894 -0.02525,-0.00631c0.05682,-0.06944 -0.52398,-0.29672 -0.63762,-0.25253c-0.04419,0.01894 -0.06944,0.00632 -0.0505,-0.02525c0.04419,-0.06944 -0.33459,-0.20833 -0.42297,-0.15151c-0.03157,0.01894 -0.04419,0.00632 -0.02525,-0.02525c0.05682,-0.08838 -0.30303,-0.23359 -0.40404,-0.17046c-0.0505,0.03157 -0.05682,0.01894 -0.02525,-0.03787c0.03788,-0.06313 0.02525,-0.07576 -0.05682,-0.04419c-0.06944,0.03157 -0.09469,0.01894 -0.06313,-0.03157c0.03157,-0.0505 0.01262,-0.05682 -0.06313,-0.03157c-0.06944,0.03157 -0.09469,0.01894 -0.06313,-0.03157c0.03157,-0.0505 0.01262,-0.05682 -0.06313,-0.03157c-0.06944,0.03157 -0.09469,0.01894 -0.06313,-0.03156c0.03157,-0.0505 0.01262,-0.05682 -0.06313,-0.03157c-0.06944,0.03157 -0.09469,0.01894 -0.06313,-0.03157c0.03157,-0.0505 0.01262,-0.05682 -0.06313,-0.03157c-0.06944,0.03157 -0.09469,0.01894 -0.06313,-0.03156c0.03157,-0.0505 0.00631,-0.05682 -0.07576,-0.02525c-0.06313,0.02525 -0.0947,0.02525 -0.06944,0c0.06313,-0.06313 -0.19571,-0.22727 -0.28409,-0.17676c-0.04419,0.03157 -0.0505,0.01894 -0.01894,-0.03788c0.03788,-0.06313 0.02525,-0.07576 -0.05682,-0.04419c-0.06944,0.03157 -0.0947,0.01894 -0.06313,-0.03157c0.03157,-0.0505 0.01262,-0.05682 -0.06313,-0.03157c-0.06944,0.03157 -0.09469,0.01894 -0.06313,-0.03156c0.03157,-0.0505 0.01263,-0.05682 -0.05682,-0.03157c-0.05682,0.01894 -0.11995,0.00631 -0.1452,-0.03157c-0.03157,-0.04419 -0.01262,-0.0505 0.03788,-0.01894c0.05682,0.03788 0.06944,0.02525 0.03788,-0.02525c-0.03157,-0.04419 -0.08838,-0.06313 -0.13889,-0.04419c-0.0505,0.01894 -0.08207,0 -0.06944,-0.04419c0.00631,-0.04419 -0.03788,-0.06944 -0.09469,-0.06944c-0.06313,0.00631 -0.0947,-0.01894 -0.06944,-0.05682c0.02525,-0.03788 0,-0.05051 -0.06313,-0.02525c-0.05682,0.01894 -0.11994,0.00631 -0.1452,-0.03157c-0.03157,-0.04419 -0.01262,-0.0505 0.03788,-0.01894c0.05682,0.03788 0.06944,0.02525 0.03788,-0.02525c-0.03157,-0.04419 -0.08839,-0.06313 -0.13889,-0.04419c-0.04419,0.01894 -0.10101,0 -0.12626,-0.03788c-0.03157,-0.04419 -0.01262,-0.0505 0.04419,-0.02525c0.0505,0.02525 0.01894,-0.01262 -0.06944,-0.08207c-0.15151,-0.12626 -0.22727,-0.15783 -0.32828,-0.13889c-0.03157,0 -0.04419,-0.03156 -0.03157,-0.07575c0.00631,-0.03788 -0.03788,-0.07576 -0.09469,-0.07576c-0.05682,0 -0.12626,-0.02525 -0.15783,-0.05682c-0.03157,-0.03157 -0.01262,-0.03788 0.04419,-0.01262c0.0505,0.02525 0.03788,0.00631 -0.02525,-0.0505c-0.06313,-0.0505 -0.13889,-0.08207 -0.17045,-0.06944c-0.02525,0.01894 -0.06944,0 -0.09469,-0.03788c-0.03157,-0.0505 -0.01262,-0.06313 0.04419,-0.03157c0.0505,0.02525 0.03157,0.00631 -0.03157,-0.0505c-0.06313,-0.0505 -0.13889,-0.08207 -0.16414,-0.06944c-0.02525,0.01894 -0.08838,-0.01894 -0.13257,-0.08207c-0.08207,-0.10101 -0.08207,-0.10101 0.03788,-0.01263c0.11995,0.08838 0.11995,0.08839 0.03788,-0.01894c-0.0505,-0.06313 -0.12626,-0.10101 -0.17045,-0.08207c-0.04419,0.01262 -0.12626,-0.03157 -0.19571,-0.10732c-0.11364,-0.13889 -0.11363,-0.13889 0.01894,-0.04419c0.06944,0.0505 0.04419,0.01262 -0.05051,-0.08207c-0.10101,-0.09469 -0.20833,-0.15782 -0.23358,-0.1452c-0.02525,0.01894 -0.13258,-0.05682 -0.23358,-0.17045l-0.18308,-0.20202l0.1957,0.15782c0.10732,0.08838 0.02525,-0.00631 -0.18308,-0.20201c-0.20833,-0.19571 -0.41035,-0.35353 -0.44823,-0.34722c-0.03788,0.00631 -0.06313,-0.02525 -0.05682,-0.06313c0.01262,-0.04419 -0.25884,-0.35984 -0.59343,-0.69444c-0.33459,-0.3409 -0.53661,-0.56186 -0.45454,-0.49242c0.08838,0.06944 0.0442,0.01262 -0.10101,-0.12626c-0.13889,-0.13889 -0.20202,-0.20833 -0.12626,-0.15783c0.12626,0.09469 0.12626,0.0947 0.00631,-0.06313c-0.06944,-0.08838 -0.22727,-0.25252 -0.34722,-0.37247c-0.12626,-0.11995 -0.17046,-0.17676 -0.10732,-0.12626c0.11995,0.08838 0.11995,0.08207 0.01262,-0.08207c-0.10732,-0.16414 -0.22095,-0.25884 -0.12626,-0.10101c0.02525,0.04419 0.01894,0.05051 -0.03156,0.02525c-0.03788,-0.02525 -0.0505,-0.07576 -0.03157,-0.11364c0.02525,-0.03788 -0.03788,-0.13889 -0.13889,-0.22727c-0.10101,-0.08207 -0.13889,-0.13258 -0.08838,-0.10732c0.0505,0.02525 0.02525,-0.01894 -0.06313,-0.09469c-0.08838,-0.07576 -0.11995,-0.11364 -0.06944,-0.08838c0.06313,0.03157 0.05682,-0.01263 -0.02525,-0.15151c-0.06313,-0.10732 -0.13889,-0.18308 -0.17046,-0.16414c-0.03157,0.01894 -0.0505,0.01262 -0.04419,-0.01894c0.01894,-0.12626 -0.01262,-0.21464 -0.06944,-0.17676c-0.03157,0.01894 -0.04419,0 -0.02525,-0.05682c0.01894,-0.0505 -0.01894,-0.11995 -0.08838,-0.15783c-0.06944,-0.03788 -0.13889,-0.11364 -0.16414,-0.16414c-0.02525,-0.06313 -0.01262,-0.08838 0.03157,-0.05682c0.0505,0.02525 0.04419,0 0,-0.0947c-0.04419,-0.06944 -0.10101,-0.13257 -0.13258,-0.13257c-0.03788,0 -0.05682,-0.01894 -0.05682,-0.0505c0.01894,-0.11995 -0.01263,-0.20833 -0.06944,-0.17045c-0.03157,0.01894 -0.04419,0 -0.02525,-0.0505c0.04419,-0.11364 -0.18939,-0.50505 -0.25883,-0.4356c-0.03157,0.02525 -0.03157,0.00631 -0.00632,-0.03788c0.05682,-0.10101 -0.01894,-0.3409 -0.09469,-0.29671c-0.03157,0.01894 -0.03788,-0.01263 -0.01262,-0.06944c0.02525,-0.07576 0.01894,-0.09469 -0.03157,-0.06313c-0.0505,0.03157 -0.06313,0.00631 -0.03157,-0.06313c0.03157,-0.08207 0.01894,-0.09469 -0.04419,-0.05682c-0.05682,0.03157 -0.06944,0.02525 -0.03788,-0.02525c0.06313,-0.10101 -0.01894,-0.33459 -0.10101,-0.28409c-0.04419,0.02525 -0.05051,0.01263 -0.02525,-0.03156c0.05682,-0.08838 -0.01262,-0.33459 -0.08838,-0.2904c-0.02525,0.01894 -0.03788,-0.03157 -0.01262,-0.10732c0.01894,-0.08207 0.00631,-0.11995 -0.03157,-0.09469c-0.03788,0.02525 -0.06944,0.00631 -0.06313,-0.03788c0.00631,-0.19571 -0.02525,-0.30303 -0.07576,-0.27146c-0.03157,0.02525 -0.0442,-0.02525 -0.01894,-0.10101c0.01894,-0.08838 0.00631,-0.11995 -0.03788,-0.08838c-0.04419,0.02525 -0.06313,0.01262 -0.04419,-0.03788c0.03157,-0.08838 -0.2399,-1.07953 -0.28409,-1.03534c-0.01894,0.01262 -0.03156,-0.05051 -0.03787,-0.13889c0,-0.09469 -0.08207,-0.5366 -0.17046,-0.97852c-0.09469,-0.44823 -0.17045,-0.89645 -0.17045,-0.99746c0,-0.10732 -0.02525,-0.17676 -0.05682,-0.15783c-0.02525,0.01894 -0.0505,-0.94696 -0.0505,-2.14012c0,-1.19317 0.01894,-2.15906 0.04419,-2.14643c0.05682,0.03788 0.20833,-1.08584 0.15151,-1.17422c-0.02525,-0.04419 -0.01894,-0.05682 0.01894,-0.03788c0.08207,0.0505 0.23358,-0.68181 0.17045,-0.78913c-0.02525,-0.03788 -0.01894,-0.0505 0.01894,-0.03157c0.07576,0.0505 0.23359,-0.55555 0.17046,-0.65656c-0.02525,-0.04419 -0.01894,-0.05681 0.01894,-0.03787c0.07576,0.04419 0.42298,-1.00378 0.35984,-1.10478c-0.02525,-0.03788 -0.01894,-0.05051 0.02525,-0.02525c0.08207,0.0505 0.16414,-0.18308 0.10101,-0.28409c-0.02525,-0.0505 -0.01894,-0.05682 0.02525,-0.03156c0.06944,0.04419 0.10101,-0.0442 0.0947,-0.25884c-0.00631,-0.04419 0.01894,-0.06313 0.0505,-0.04419c0.03157,0.01894 0.05682,0.01894 0.05682,0c0,-0.01262 0.01894,-0.07575 0.04419,-0.13889c0.02525,-0.07576 0.01894,-0.0947 -0.03156,-0.06313c-0.0505,0.03157 -0.06313,0.01263 -0.03788,-0.0505c0.01894,-0.05682 0.06313,-0.08838 0.08838,-0.06944c0.06944,0.04419 0.13889,-0.15151 0.08207,-0.23358c-0.02525,-0.04419 -0.00631,-0.05051 0.04419,-0.01894c0.06313,0.03788 0.07576,0.02525 0.04419,-0.05682c-0.03157,-0.06944 -0.01894,-0.0947 0.03157,-0.06313c0.0505,0.03157 0.05682,0.01263 0.03156,-0.06313c-0.03157,-0.06944 -0.01894,-0.0947 0.03157,-0.06313c0.0505,0.03157 0.05682,0.01263 0.03157,-0.06313c-0.03157,-0.06944 -0.01894,-0.0947 0.03157,-0.06313c0.0505,0.03157 0.05682,0.01263 0.03156,-0.06313c-0.03157,-0.06944 -0.01894,-0.0947 0.03157,-0.06313c0.0505,0.03157 0.05682,0.01263 0.03157,-0.06313c-0.02525,-0.05682 -0.01894,-0.09469 0.01262,-0.07576c0.02525,0.01894 0.08207,-0.03788 0.12626,-0.12626c0.05682,-0.12626 0.05682,-0.15151 -0.00631,-0.11995c-0.04419,0.02525 -0.03787,0.00631 0.01894,-0.04419c0.05682,-0.04419 0.08838,-0.11364 0.07575,-0.15783c-0.01262,-0.03788 0.00632,-0.09469 0.05051,-0.11995c0.0505,-0.03157 0.06313,-0.01894 0.03156,0.04419c-0.02525,0.0505 0,0.03157 0.05051,-0.03788c0.05682,-0.06944 0.08838,-0.15782 0.07576,-0.20201c-0.01894,-0.04419 0,-0.09469 0.03787,-0.11995c0.04419,-0.03157 0.05051,-0.01262 0.02525,0.04419c-0.02525,0.0505 0,0.03157 0.0505,-0.03788c0.05682,-0.06944 0.08838,-0.15783 0.07576,-0.20202c-0.01894,-0.04419 0,-0.09469 0.03788,-0.11995c0.04419,-0.02525 0.05051,-0.01894 0.02525,0.02525c-0.02525,0.04419 -0.03157,0.07575 -0.01263,0.07575c0.01894,0 0.06313,-0.06313 0.10732,-0.13257c0.0505,-0.10101 0.0505,-0.12626 -0.00631,-0.08838c-0.05682,0.03788 -0.05682,0.01262 -0.00631,-0.08838c0.04419,-0.06944 0.08838,-0.13257 0.10732,-0.13257c0.01894,0 0.01262,0.02525 -0.00631,0.06313c-0.08838,0.1452 0.02525,0.05051 0.12626,-0.10101c0.07576,-0.11364 0.08207,-0.15151 0.02525,-0.11995c-0.0505,0.02525 -0.01262,-0.01894 0.07576,-0.10101c0.20833,-0.19571 0.37878,-0.41666 0.25883,-0.34722c-0.06944,0.04419 -0.07576,0.02525 -0.01894,-0.07576c0.03788,-0.07576 0.10732,-0.15151 0.15151,-0.17676c0.0505,-0.03157 0.04419,-0.01263 -0.01262,0.05682c-0.04419,0.05682 -0.06944,0.10732 -0.05051,0.10732c0.01262,0 0.10732,-0.10732 0.20833,-0.2399c0.11995,-0.16414 0.13889,-0.20202 0.05051,-0.13889c-0.06944,0.0505 -0.02525,-0.00631 0.10101,-0.12626c0.12626,-0.11995 0.18308,-0.19571 0.12626,-0.15783c-0.0505,0.03157 0.03157,-0.06313 0.18939,-0.22095c0.16414,-0.15783 0.22095,-0.22727 0.13257,-0.15783c-0.27146,0.21464 0.32197,-0.46717 0.93433,-1.0669c0.30934,-0.30934 0.61868,-0.57449 0.67549,-0.5808c0.06313,-0.01262 0.18308,-0.0947 0.27146,-0.19571l0.16414,-0.17045l-0.18939,0.15151l-0.18939,0.15783l0.15151,-0.17045c0.08207,-0.09469 0.17045,-0.16414 0.18939,-0.1452c0.06313,0.03788 0.22727,-0.08207 0.22727,-0.16414c0,-0.04419 0.05682,-0.08207 0.11995,-0.09469c0.06313,-0.00631 0.16414,-0.06944 0.22095,-0.12626c0.09469,-0.10732 0.0947,-0.10732 -0.02525,-0.01894c-0.11364,0.08207 -0.11995,0.08207 -0.04419,-0.01894c0.0505,-0.05682 0.11994,-0.09469 0.16413,-0.07576c0.04419,0.01894 0.11995,-0.01894 0.17046,-0.08207c0.08207,-0.10732 0.08207,-0.10732 -0.03788,-0.01894c-0.11364,0.08838 -0.11995,0.08838 -0.04419,-0.01263c0.0505,-0.05682 0.11995,-0.09469 0.17045,-0.07576c0.04419,0.01894 0.10101,0 0.13257,-0.04419c0.03157,-0.0505 0.01894,-0.06313 -0.03788,-0.02525c-0.0505,0.03157 -0.06944,0.02525 -0.03788,-0.01894c0.02525,-0.03788 0.08207,-0.05682 0.12626,-0.03788c0.04419,0.01894 0.11995,-0.01894 0.17045,-0.07575c0.07576,-0.09469 0.07576,-0.10732 0,-0.05682c-0.05682,0.03157 -0.07576,0.02525 -0.04419,-0.01894c0.02525,-0.03788 0.08207,-0.05682 0.12626,-0.03788c0.0505,0.01894 0.10732,0 0.13889,-0.04419c0.03157,-0.0505 0.01894,-0.06313 -0.03788,-0.02525c-0.05682,0.03157 -0.06944,0.02525 -0.03788,-0.02525c0.02525,-0.03788 0.07575,-0.05682 0.10732,-0.03788c0.06944,0.04419 0.32828,-0.11995 0.27146,-0.17046c-0.01894,-0.01894 0.01894,-0.03156 0.08207,-0.03156c0.06313,0.00631 0.10732,-0.02525 0.09469,-0.06944c-0.00631,-0.0505 0.01262,-0.06944 0.0505,-0.04419c0.07576,0.0505 0.3346,-0.11994 0.27146,-0.18308c-0.02525,-0.02525 0.00631,-0.02525 0.06944,0c0.09469,0.03788 0.10732,0.02525 0.06944,-0.03788c-0.03157,-0.05682 -0.02525,-0.06944 0.01894,-0.03788c0.08838,0.0505 0.34722,-0.11364 0.28409,-0.17677c-0.02525,-0.02525 0.00631,-0.02525 0.06944,0c0.08207,0.03157 0.10732,0.02525 0.07576,-0.02525c-0.03157,-0.0505 -0.00631,-0.06313 0.06313,-0.03157c0.07576,0.02525 0.09469,0.01894 0.06313,-0.03157c-0.03157,-0.0505 -0.00631,-0.06313 0.06313,-0.03156c0.07576,0.02525 0.09469,0.01894 0.06313,-0.03157c-0.03157,-0.0505 -0.00631,-0.06313 0.06313,-0.03157c0.07576,0.02525 0.09469,0.01894 0.06313,-0.03157c-0.03157,-0.0505 -0.00631,-0.06313 0.06313,-0.03156c0.07576,0.02525 0.09469,0.01894 0.06313,-0.03157c-0.03157,-0.0505 -0.00631,-0.06313 0.06313,-0.03157c0.07576,0.02525 0.09469,0.01894 0.06313,-0.03157c-0.03157,-0.0505 -0.00631,-0.06313 0.06313,-0.03157c0.07576,0.02525 0.09469,0.01894 0.06313,-0.03156c-0.03157,-0.0505 -0.00631,-0.06313 0.06313,-0.03157c0.08207,0.03157 0.09469,0.01894 0.05682,-0.04419c-0.03157,-0.0505 -0.02525,-0.06944 0.01263,-0.04419c0.08838,0.05682 0.46716,-0.08207 0.42297,-0.15151c-0.01894,-0.03157 0.01894,-0.03788 0.07576,-0.01262c0.07576,0.02525 0.09469,0.01894 0.06313,-0.03157c-0.03157,-0.0505 -0.00631,-0.06313 0.06313,-0.03157c0.08207,0.03157 0.09469,0.01894 0.05682,-0.04419c-0.03157,-0.05682 -0.02525,-0.06944 0.02525,-0.03788c0.08838,0.05682 0.52398,-0.08207 0.47979,-0.15151c-0.01894,-0.02525 0.03157,-0.03788 0.10732,-0.01263c0.06944,0.01894 0.11994,0.00632 0.10101,-0.02525c-0.02525,-0.03157 0.02525,-0.05682 0.0947,-0.06313c0.22727,-0.00631 1.56563,-0.44191 1.51513,-0.49242c-0.02525,-0.02525 0,-0.02525 0.05682,-0.00631c0.05682,0.02525 0.37878,-0.01894 0.71969,-0.09469c0.34722,-0.06944 0.9217,-0.17045 1.28786,-0.21464c0.97852,-0.12626 3.20071,-0.12626 4.19817,0.00631zM233.12461,181.02242l-0.69443,0.71337l0.71337,-0.69443c0.38509,-0.37878 0.70706,-0.70075 0.70706,-0.70706c0,-0.0505 -0.08207,0.03157 -0.726,0.68812zM257.22148,180.8204c-0.01894,0 0.03157,0.06944 0.11364,0.15783c0.08207,0.08838 0.16414,0.15783 0.17676,0.15783c0.01894,0 -0.03156,-0.06944 -0.11363,-0.15783c-0.08207,-0.08838 -0.16414,-0.15783 -0.17677,-0.15783zM244.0146,181.80524c-0.78913,0.11995 -1.0669,0.17676 -1.03534,0.22095c0.01894,0.03157 -0.01262,0.03788 -0.06313,0.01894c-0.12626,-0.0505 -0.74494,0.09469 -0.70075,0.16414c0.01262,0.02525 -0.04419,0.03156 -0.13889,0.01262c-0.10732,-0.01894 -0.15151,-0.00631 -0.11995,0.03788c0.02525,0.03788 -0.01263,0.05051 -0.10101,0.02525c-0.08207,-0.01894 -0.11995,-0.00632 -0.09469,0.03156c0.03157,0.04419 -0.00631,0.05682 -0.09469,0.03157c-0.08207,-0.01894 -0.11995,-0.00631 -0.0947,0.03157c0.03157,0.04419 -0.00631,0.05682 -0.09469,0.03157c-0.10101,-0.02525 -0.11995,-0.01263 -0.08207,0.0505c0.03157,0.05682 0.02525,0.06944 -0.02525,0.03788c-0.10101,-0.06313 -0.33459,0.01894 -0.28409,0.10101c0.02525,0.04419 0.01262,0.05051 -0.03157,0.02525c-0.09469,-0.05682 -0.33459,0.01894 -0.2904,0.09469c0.01894,0.03157 -0.01263,0.03788 -0.06944,0.01262c-0.08207,-0.03157 -0.09469,-0.01894 -0.05682,0.04419c0.03157,0.0505 0.02525,0.06944 -0.01894,0.03788c-0.08838,-0.05682 -0.39772,0.08838 -0.34722,0.17045c0.01894,0.03788 0.00631,0.0442 -0.03157,0.01894c-0.06944,-0.03788 -0.70706,0.2399 -0.70706,0.31565c0,0.01894 0.03157,0.01262 0.07576,-0.01263c0.04419,-0.02525 0.05051,-0.01894 0.02525,0.03157c-0.02525,0.03788 -0.07576,0.05682 -0.10732,0.03788c-0.07576,-0.0505 -0.4356,0.16414 -0.39772,0.23358c0.01894,0.02525 -0.00631,0.03156 -0.05682,0.01262c-0.0505,-0.01894 -0.12626,0.01894 -0.17676,0.07576c-0.07576,0.09469 -0.07576,0.10732 0,0.05682c0.05682,-0.03157 0.07576,-0.02525 0.04419,0.01894c-0.02525,0.03788 -0.07576,0.05682 -0.11995,0.04419c-0.04419,-0.01894 -0.1452,0.03156 -0.23358,0.10732c-0.08838,0.08207 -0.11994,0.11364 -0.06313,0.08207c0.08207,-0.05682 0.08207,-0.0505 0.01262,0.04419c-0.0505,0.05682 -0.11995,0.09469 -0.16414,0.07576c-0.04419,-0.01894 -0.13257,0.03788 -0.20202,0.11364c-0.11995,0.1452 -0.11995,0.1452 0.00631,0.0505c0.11364,-0.08838 0.11995,-0.08838 0.03788,0.01262c-0.04419,0.06313 -0.10732,0.09469 -0.13889,0.07576c-0.03157,-0.01894 -0.16414,0.07576 -0.29671,0.20833c-0.23358,0.23358 -0.23358,0.2399 -0.01263,0.0505l0.22096,-0.18939l-0.21464,0.23358c-0.11995,0.13257 -0.23358,0.22096 -0.26515,0.20833c-0.06944,-0.04419 -0.44823,0.33459 -0.41035,0.40403c0.02525,0.03157 -0.12626,0.20833 -0.32828,0.39772c-0.19571,0.18308 -0.30934,0.2904 -0.23989,0.2399c0.11995,-0.09469 0.11995,-0.09469 0,0.07576c-0.06313,0.08838 -0.1452,0.15782 -0.17046,0.15782c-0.03157,-0.00631 -0.12626,0.08838 -0.22095,0.20833c-0.09469,0.11995 -0.12626,0.18939 -0.07576,0.15783c0.05682,-0.03788 0.02525,0.00631 -0.06313,0.08838c-0.08838,0.08207 -0.11364,0.12626 -0.06313,0.10101c0.0505,-0.02525 0.02525,0.01894 -0.06313,0.09469c-0.08838,0.07576 -0.11995,0.11995 -0.07576,0.09469c0.06944,-0.03788 0.07575,-0.01894 0.01894,0.08838c-0.04419,0.06944 -0.08838,0.13258 -0.10732,0.13258c-0.01894,0 -0.01262,-0.03157 0.00631,-0.06313c0.01894,-0.03788 0.02525,-0.06313 0.00631,-0.06313c-0.01894,0 -0.06313,0.06313 -0.10732,0.13257c-0.05682,0.10732 -0.0505,0.12626 0.01894,0.08838c0.04419,-0.03157 0.00631,0.01894 -0.08838,0.11364c-0.17045,0.16414 -0.2399,0.27778 -0.11364,0.20202c0.03788,-0.01894 0.04419,0.00631 0.02525,0.05682c-0.01894,0.05682 -0.05682,0.08838 -0.08207,0.06944c-0.02525,-0.01262 -0.09469,0.07575 -0.15783,0.1957c-0.05682,0.12626 -0.07576,0.20833 -0.03788,0.18308c0.03788,-0.01894 0.04419,0 0.02525,0.05682c-0.01894,0.05682 -0.05682,0.08838 -0.08839,0.06944c-0.06313,-0.03788 -0.20201,0.27778 -0.15151,0.35984c0.02525,0.03788 0.01262,0.0505 -0.02525,0.02525c-0.08207,-0.0505 -0.16414,0.18308 -0.10101,0.28409c0.03157,0.0505 0.01894,0.05682 -0.03788,0.02525c-0.06313,-0.03788 -0.07576,-0.01894 -0.0505,0.08207c0.02525,0.07576 0.01262,0.12626 -0.01263,0.10732c-0.07576,-0.04419 -0.1452,0.20202 -0.08838,0.2904c0.02525,0.04419 0.01894,0.05682 -0.01894,0.03788c-0.07576,-0.04419 -0.27146,0.59974 -0.46717,1.51513c-0.17045,0.78282 -0.23358,2.68304 -0.12626,3.52268c0.10732,0.80807 0.32828,1.73609 0.40404,1.6919c0.03788,-0.01894 0.0442,-0.00632 0.01894,0.03156c-0.06313,0.10101 0.02525,0.39772 0.10732,0.34722c0.03788,-0.01894 0.0442,-0.00631 0.01894,0.03157c-0.05682,0.08838 0.02525,0.39772 0.08838,0.35984c0.03157,-0.01894 0.03788,0.03157 0.01262,0.10732c-0.01894,0.08207 -0.00631,0.11995 0.03157,0.09469c0.03788,-0.02525 0.06944,-0.00631 0.06313,0.03788c-0.00631,0.20202 0.02525,0.30302 0.08207,0.26515c0.03788,-0.02525 0.0442,0.00631 0.01894,0.06944c-0.03157,0.08207 -0.01894,0.09469 0.04419,0.05682c0.0505,-0.03157 0.06944,-0.02525 0.04419,0.01263c-0.06313,0.10101 0.08207,0.46716 0.16414,0.41666c0.03788,-0.01894 0.04419,-0.00631 0.01894,0.03157c-0.03788,0.06944 0.18308,0.5808 0.25252,0.5808c0.01894,0 0.01263,-0.03157 -0.01262,-0.07576c-0.02525,-0.04419 -0.01894,-0.05051 0.03157,-0.02525c0.03788,0.02525 0.05682,0.07576 0.03157,0.10732c-0.03157,0.05682 0.25883,0.62499 0.32828,0.62499c0.01894,0 0.01262,-0.03157 -0.00632,-0.06313c-0.01894,-0.03788 -0.02525,-0.06313 -0.00631,-0.06313c0.01894,0 0.06313,0.06313 0.10732,0.13257c0.05682,0.10732 0.0505,0.12626 -0.01894,0.08838c-0.04419,-0.02525 -0.01262,0.01894 0.07576,0.09469c0.08838,0.07576 0.11995,0.11995 0.06944,0.0947c-0.15151,-0.08207 0.10101,0.24621 0.30934,0.40404c0.10732,0.07576 0.17677,0.17045 0.15151,0.20201c-0.01894,0.03788 0.2399,0.34091 0.58711,0.6755c0.34722,0.3409 0.42929,0.42929 0.18308,0.20202l-0.44823,-0.41035l0.47348,0.49242c0.25883,0.26515 0.50504,0.47348 0.54292,0.46085c0.04419,-0.01894 0.13889,0.04419 0.22096,0.13889l0.15151,0.17045l-0.18939,-0.15783l-0.18939,-0.15782l0.15783,0.17676c0.08207,0.09469 0.18939,0.15782 0.22727,0.1452c0.04419,-0.01894 0.11364,0.01894 0.16414,0.07576c0.07576,0.10101 0.06944,0.10101 -0.0442,0.01262c-0.12626,-0.09469 -0.12626,-0.08838 -0.00631,0.05051c0.06944,0.07576 0.16414,0.13257 0.22096,0.12626c0.05682,-0.01262 0.10101,0.02525 0.10101,0.07576c0,0.0505 0.05051,0.08838 0.10732,0.08838c0.06313,-0.00631 0.10101,0.01894 0.09469,0.06313c-0.00631,0.03788 0.03788,0.06313 0.09469,0.06313c0.06313,-0.00631 0.10101,0.01894 0.0947,0.06313c-0.00631,0.03788 0.03788,0.06313 0.09469,0.06313c0.06313,-0.00631 0.10101,0.00631 0.08207,0.03157c-0.03788,0.06313 0.33459,0.27146 0.40404,0.22727c0.03157,-0.01894 0.08207,0 0.10732,0.03788c0.02525,0.0505 0.01894,0.05682 -0.02525,0.03157c-0.04419,-0.02525 -0.07576,-0.03157 -0.07576,-0.01263c0,0.07576 1.0164,0.54293 1.08584,0.50505c0.03788,-0.02525 0.05051,-0.01894 0.02525,0.02525c-0.0505,0.08207 0.18308,0.16414 0.28408,0.10101c0.04419,-0.02525 0.05682,-0.01894 0.03157,0.02525c-0.0505,0.08207 0.18308,0.16414 0.28409,0.10101c0.04419,-0.02525 0.05682,-0.01894 0.03788,0.01894c-0.0505,0.08207 0.24621,0.17046 0.34722,0.10732c0.03788,-0.02525 0.0505,-0.01894 0.03157,0.01894c-0.0505,0.08207 0.24621,0.17046 0.34722,0.10732c0.03788,-0.02525 0.0505,-0.01894 0.03157,0.01894c-0.0505,0.08207 0.60605,0.2399 0.71337,0.17677c0.0505,-0.03157 0.06945,-0.02525 0.0442,0.01262c-0.09469,0.15783 1.84341,0.36615 2.85981,0.30934c0.85857,-0.04419 1.33205,-0.10101 1.29417,-0.15782c-0.01262,-0.02525 0.07576,-0.03157 0.20202,-0.01894c0.17045,0.02525 0.21464,0.00631 0.17676,-0.0505c-0.03157,-0.05682 -0.02525,-0.06944 0.02525,-0.03788c0.09469,0.06313 0.58711,-0.01894 0.54292,-0.08838c-0.01894,-0.02525 0.01894,-0.03788 0.08207,-0.01894c0.17045,0.04419 1.35099,-0.35353 1.30048,-0.4356c-0.02525,-0.04419 -0.01262,-0.05051 0.03157,-0.02525c0.09469,0.05682 0.33459,-0.01894 0.2904,-0.09469c-0.01894,-0.03157 0.01263,-0.03788 0.06944,-0.01262c0.08207,0.03157 0.09469,0.01894 0.05682,-0.04419c-0.03788,-0.05682 -0.02525,-0.06944 0.02525,-0.03157c0.10101,0.05682 0.5808,-0.15783 0.53029,-0.2399c-0.01894,-0.03788 -0.00631,-0.04419 0.03157,-0.01894c0.09469,0.05682 0.3409,-0.07576 0.29671,-0.15151c-0.02525,-0.03788 0.00631,-0.0442 0.06944,-0.01894c0.07576,0.02525 0.0947,0.01894 0.06313,-0.03156c-0.03157,-0.0505 -0.00632,-0.06313 0.06313,-0.03157c0.06944,0.02525 0.0947,0.01262 0.06944,-0.02525c-0.02525,-0.03788 0.00631,-0.06313 0.06944,-0.05682c0.05682,0 0.10101,-0.03157 0.08839,-0.07576c-0.00631,-0.0505 0.01262,-0.06944 0.0505,-0.04419c0.06944,0.04419 0.33459,-0.11995 0.27777,-0.17045c-0.01894,-0.01894 0.01894,-0.03157 0.08207,-0.02525c0.06313,0 0.10732,-0.03157 0.0947,-0.07576c-0.00631,-0.0505 0.00631,-0.06944 0.03788,-0.0505c0.05682,0.03157 0.51767,-0.25252 0.51767,-0.32197c0,-0.01894 -0.0505,0.00632 -0.10732,0.05051c-0.10101,0.08207 -0.10732,0.07575 -0.03157,-0.01894c0.0505,-0.05682 0.11995,-0.09469 0.16414,-0.07576c0.04419,0.01894 0.13257,-0.03787 0.20202,-0.11363c0.11995,-0.1452 0.11994,-0.1452 -0.00632,-0.05051c-0.11364,0.08838 -0.11994,0.08838 -0.03787,-0.01262c0.04419,-0.06313 0.11363,-0.09469 0.1452,-0.07576c0.03157,0.01894 0.35984,-0.27146 0.73231,-0.64393c0.37247,-0.37878 0.54292,-0.56817 0.38509,-0.4356c-0.15783,0.13889 -0.10101,0.06944 0.12626,-0.15783c0.22727,-0.22095 0.34722,-0.34722 0.25883,-0.28408c-0.11995,0.10101 -0.11363,0.07575 0.05682,-0.1452c0.11364,-0.1452 0.22096,-0.26515 0.2399,-0.26515c0.02525,0 -0.01262,0.06313 -0.08207,0.13889c-0.06313,0.07576 -0.08839,0.11364 -0.0442,0.08838c0.04419,-0.01894 0.13889,-0.13257 0.22096,-0.2399c0.07576,-0.10732 0.09469,-0.17676 0.04419,-0.1452c-0.04419,0.03157 0.00631,-0.03157 0.11995,-0.13889c0.20833,-0.20202 0.26515,-0.30934 0.12626,-0.23989c-0.04419,0.02525 -0.01262,-0.01262 0.06944,-0.08207c0.08207,-0.06313 0.13257,-0.15151 0.10732,-0.18939c-0.01894,-0.03788 -0.00631,-0.08838 0.03157,-0.11364c0.0505,-0.02525 0.05682,-0.01894 0.03157,0.02525c-0.02525,0.04419 -0.03157,0.07576 -0.01263,0.07576c0.01894,0 0.08207,-0.08838 0.13889,-0.19571c0.05682,-0.11364 0.06944,-0.17677 0.02525,-0.15151c-0.05682,0.03788 -0.05682,0.01262 -0.00631,-0.08838c0.04419,-0.06944 0.08839,-0.13257 0.10732,-0.13257c0.01894,0 0.01262,0.03157 -0.00631,0.06313c-0.01894,0.03157 -0.01894,0.06313 0,0.06313c0.07576,0 0.41666,-0.82069 0.37247,-0.89014c-0.03157,-0.0505 -0.01894,-0.05682 0.03787,-0.02525c0.06313,0.03788 0.07576,0.02525 0.0442,-0.05682c-0.02525,-0.05682 -0.01894,-0.08838 0.01262,-0.06944c0.07576,0.04419 0.15151,-0.19571 0.09469,-0.2904c-0.03157,-0.0505 -0.01894,-0.05682 0.03788,-0.02525c0.06313,0.03788 0.07576,0.01894 0.0505,-0.08207c-0.02525,-0.07576 -0.01262,-0.12626 0.01263,-0.10732c0.07576,0.04419 0.1452,-0.20202 0.08838,-0.2904c-0.02525,-0.04419 -0.01894,-0.05682 0.01894,-0.03788c0.08207,0.0505 0.30303,-0.73863 0.23358,-0.84595c-0.02525,-0.04419 -0.01894,-0.06313 0.02525,-0.03788c0.07576,0.0505 0.17046,-0.42297 0.10101,-0.53029c-0.02525,-0.04419 -0.01894,-0.05682 0.01894,-0.03788c0.20202,0.12626 0.32197,-2.6641 0.15783,-3.6805c-0.11364,-0.726 -0.3409,-1.64139 -0.39772,-1.60983c-0.02525,0.01894 -0.03157,-0.03157 -0.00632,-0.10732c0.01894,-0.08207 0.00632,-0.11995 -0.03156,-0.09469c-0.04419,0.03157 -0.05682,-0.00631 -0.03157,-0.09469c0.02525,-0.10101 0.01263,-0.11995 -0.0505,-0.08207c-0.0505,0.03157 -0.06944,0.02525 -0.03788,-0.01894c0.05682,-0.09469 -0.02525,-0.39772 -0.0947,-0.35353c-0.03157,0.01894 -0.03788,-0.01894 -0.01262,-0.07576c0.02525,-0.06944 0.01894,-0.0947 -0.02525,-0.06944c-0.04419,0.03157 -0.05682,-0.00631 -0.03157,-0.09469c0.02525,-0.10101 0.01263,-0.11995 -0.0505,-0.08207c-0.05682,0.03157 -0.06944,0.02525 -0.03788,-0.02525c0.06313,-0.10101 -0.01894,-0.33459 -0.10101,-0.28408c-0.03788,0.02525 -0.0505,0.01262 -0.03157,-0.02525c0.05682,-0.08838 -0.01894,-0.27146 -0.08838,-0.22727c-0.03157,0.01894 -0.03788,-0.01894 -0.01262,-0.07575c0.03157,-0.08207 0.01894,-0.0947 -0.04419,-0.05682c-0.0505,0.03157 -0.06944,0.02525 -0.04419,-0.01894c0.06313,-0.09469 -0.01894,-0.27146 -0.10101,-0.22096c-0.03788,0.01894 -0.04419,0.00632 -0.01894,-0.03156c0.04419,-0.06944 -0.11995,-0.45454 -0.18939,-0.45454c-0.01894,0 -0.01262,0.02525 0.00632,0.06313c0.01894,0.03157 0.02525,0.06313 0.00631,0.06313c-0.01894,0 -0.06313,-0.06313 -0.10732,-0.13257c-0.0505,-0.09469 -0.0505,-0.11995 0,-0.0947c0.13257,0.08207 0.06944,-0.03156 -0.10101,-0.1957c-0.10101,-0.09469 -0.13889,-0.1452 -0.08838,-0.11364c0.11364,0.06313 -0.11364,-0.32197 -0.24621,-0.42929c-0.08207,-0.06313 -0.08207,-0.06313 -0.00632,0.03157c0.04419,0.06313 0.06944,0.11364 0.05051,0.11364c-0.01894,0 -0.10101,-0.09469 -0.17677,-0.20833c-0.11995,-0.17045 -0.12626,-0.18939 -0.02525,-0.10732c0.29671,0.23358 -0.22727,-0.39141 -0.85226,-1.01008c-0.36616,-0.36616 -0.47979,-0.49242 -0.25252,-0.28409c0.23358,0.20833 0.13257,0.10101 -0.21464,-0.2399c-0.34722,-0.33459 -0.66918,-0.59974 -0.71337,-0.58711c-0.03788,0.01894 -0.10732,-0.01894 -0.15783,-0.07576c-0.07576,-0.09469 -0.06944,-0.10101 0.03157,-0.01894c0.05682,0.04419 0.10732,0.06944 0.10732,0.0505c0,-0.07576 -0.8207,-0.61868 -0.87751,-0.58711c-0.03157,0.02525 -0.08207,0.00631 -0.10732,-0.03157c-0.02525,-0.0505 -0.01894,-0.05682 0.02525,-0.03157c0.04419,0.02525 0.07576,0.03157 0.07576,0.01263c0,-0.07576 -0.44823,-0.29671 -0.51767,-0.25252c-0.04419,0.02525 -0.06313,0.02525 -0.03788,-0.00632c0.06944,-0.06944 -0.18308,-0.23989 -0.27777,-0.18308c-0.04419,0.03157 -0.05051,0.01894 -0.01894,-0.03788c0.03788,-0.06313 0.02525,-0.07576 -0.05682,-0.04419c-0.05682,0.02525 -0.09469,0.01894 -0.07576,-0.01262c0.0505,-0.07576 -0.44191,-0.28409 -0.53661,-0.22727c-0.0505,0.03788 -0.06313,0.02525 -0.02525,-0.03157c0.03788,-0.06313 0.02525,-0.07576 -0.05682,-0.04419c-0.05682,0.02525 -0.09469,0.01894 -0.07576,-0.01262c0.04419,-0.06944 -0.33459,-0.20833 -0.42297,-0.15151c-0.03157,0.01894 -0.04419,0.01263 -0.02525,-0.02525c0.0505,-0.07576 -0.81438,-0.35984 -0.91539,-0.29671c-0.04419,0.03157 -0.0505,0.01894 -0.01894,-0.03788c0.03788,-0.06313 0.00631,-0.07576 -0.11364,-0.05051c-0.09469,0.01894 -0.15151,0.01263 -0.13889,-0.01262c0.03157,-0.0505 -0.71338,-0.22095 -1.38887,-0.31565c-0.41666,-0.05682 -2.33583,-0.07576 -2.68304,-0.02525zM258.54722,182.33553c-0.01894,0 0.01894,0.05682 0.08207,0.12626c0.06313,0.06944 0.12626,0.12626 0.1452,0.12626c0.01894,0 -0.01894,-0.05682 -0.08207,-0.12626c-0.06313,-0.06944 -0.12626,-0.12626 -0.1452,-0.12626zM236.81142,185.53624l-0.21464,0.2399l0.2399,-0.21464c0.12626,-0.11995 0.23358,-0.22727 0.23358,-0.2399c0,-0.0505 -0.05051,0 -0.25884,0.21464zM236.24957,199.91104c0,0.01262 0.0505,0.06313 0.11364,0.10732c0.09469,0.08207 0.10101,0.07575 0.01894,-0.02525c-0.08207,-0.10101 -0.13257,-0.13257 -0.13257,-0.08207z" fill="#62ff00" stroke-width="1"/></g></g></svg>