<svg version="1.1" xmlns="http://www.w3.org/2000/svg" xmlns:xlink="http://www.w3.org/1999/xlink" width="532.66142" height="427.51271" viewBox="0,0,532.66142,427.51271"><g transform="translate(68,86)"><g data-paper-data="{&quot;isPaintingLayer&quot;:true}" fill="#000000" fill-rule="nonzero" stroke="none" stroke-width="1" stroke-linecap="butt" stroke-linejoin="miter" stroke-miterlimit="10" stroke-dasharray="" stroke-dashoffset="0" style="mix-blend-mode: normal"><path d="M433.97255,288.69753c0.52961,0.0662 1.07394,0.12505 1.22841,0.12505c0.14712,0.00736 0.2501,0.03678 0.22803,0.07356c-0.02207,0.03678 0.05885,0.05149 0.18389,0.02942c0.12505,-0.01471 0.21332,-0.00736 0.19861,0.01471c-0.01471,0.02942 0.22803,0.11034 0.53697,0.17654c0.30894,0.07356 0.95625,0.26481 1.44173,0.41928c0.47812,0.15447 0.90476,0.26481 0.94889,0.23538c0.03678,-0.02207 0.05149,-0.00736 0.02207,0.03678c-0.05885,0.09562 0.21332,0.19125 0.33101,0.11769c0.05149,-0.02942 0.0662,-0.02207 0.03678,0.02942c-0.05885,0.09562 0.21332,0.19125 0.33101,0.11769c0.05885,-0.03678 0.0662,-0.02207 0.02942,0.04413c-0.04413,0.07356 -0.02942,0.08827 0.0662,0.05149c0.08091,-0.03678 0.11034,-0.02207 0.07356,0.03678c-0.03678,0.05885 -0.00736,0.0662 0.08827,0.02942c0.07356,-0.02942 0.11034,-0.02942 0.08091,0c-0.07356,0.07356 0.82385,0.48548 0.92683,0.41928c0.04413,-0.02942 0.05149,-0.00736 0.01471,0.05149c-0.04413,0.07356 -0.02942,0.08827 0.05885,0.05149c0.07356,-0.02942 0.11769,-0.01471 0.10298,0.04413c-0.00736,0.05149 0.04413,0.08091 0.11034,0.08091c0.07356,-0.00736 0.11034,0.02207 0.08091,0.0662c-0.02942,0.04413 0,0.05885 0.08091,0.02942c0.08091,-0.03678 0.11034,-0.02207 0.07356,0.03678c-0.03678,0.05885 -0.01471,0.0662 0.0662,0.03678c0.07356,-0.02942 0.11769,-0.01471 0.10298,0.04413c-0.00736,0.05149 0.04413,0.08091 0.11034,0.08091c0.07356,-0.00736 0.11034,0.02207 0.08091,0.0662c-0.02942,0.05149 0,0.05885 0.09562,0.02207c0.07356,-0.02942 0.11034,-0.02942 0.08091,0c-0.07356,0.07356 0.22803,0.27216 0.3163,0.21332c0.04413,-0.02942 0.0662,-0.00736 0.05885,0.05149c-0.01471,0.05149 0.03678,0.08827 0.10298,0.08827c0.07356,-0.00736 0.11034,0.01471 0.08827,0.05149c-0.03678,0.05885 0.07356,0.09562 0.21332,0.07356c0.03678,-0.00736 0.04413,0.02207 0.01471,0.0662c-0.04413,0.0662 0.05149,0.10298 0.20596,0.08091c0.02942,0 0.04413,0.03678 0.03678,0.08091c-0.01471,0.05149 0.03678,0.09562 0.10298,0.09562c0.0662,0 0.14712,0.02942 0.18389,0.0662c0.03678,0.03678 0.01471,0.04413 -0.04413,0.00736c-0.07356,-0.04413 -0.08827,-0.02942 -0.05149,0.02942c0.03678,0.05149 0.10298,0.07356 0.16183,0.05149c0.05149,-0.02207 0.11769,0 0.14712,0.04413c0.03678,0.05149 0.01471,0.05885 -0.05149,0.02207c-0.08091,-0.04413 -0.08091,-0.03678 -0.02207,0.02942c0.04413,0.05149 0.14712,0.10298 0.22067,0.11034c0.08091,0.01471 0.13976,0.05885 0.13976,0.11034c0,0.10298 0.19125,0.23538 0.26481,0.18389c0.02942,-0.01471 0.08091,0.00736 0.11034,0.05149c0.03678,0.05885 0.01471,0.07356 -0.05149,0.03678c-0.05885,-0.02942 -0.03678,-0.00736 0.03678,0.05885c0.07356,0.05885 0.16183,0.09562 0.19125,0.08091c0.02942,-0.02207 0.11769,0.03678 0.19125,0.1324l0.13976,0.16183l-0.18389,-0.14712l-0.18389,-0.14712l0.18389,0.20596c0.09562,0.11034 0.21332,0.19125 0.26481,0.16918c0.04413,-0.01471 0.21332,0.10298 0.36779,0.27216l0.28687,0.30894l-0.30159,-0.25745c-0.16183,-0.13976 -0.11769,-0.08091 0.10298,0.1324c0.21332,0.21332 0.41928,0.36779 0.4487,0.35308c0.07356,-0.04413 0.46341,0.35308 0.41192,0.41192c-0.02942,0.02207 0.1324,0.22067 0.34572,0.44135c0.21332,0.22067 0.27216,0.26481 0.1324,0.10298l-0.25745,-0.30159l0.30894,0.28687c0.16918,0.15447 0.28687,0.32365 0.27216,0.37514c-0.02207,0.05149 0.11034,0.21332 0.29423,0.36043c0.3163,0.26481 0.71351,0.75764 0.47812,0.59582c-0.05885,-0.04413 -0.02207,0.00736 0.08091,0.11034c0.10298,0.10298 0.15447,0.16918 0.11034,0.14712c-0.04413,-0.02207 0.00736,0.04413 0.11034,0.13976c0.10298,0.09562 0.1324,0.14712 0.07356,0.11769c-0.05885,-0.02942 -0.02942,0.02207 0.07356,0.11034c0.10298,0.08827 0.13976,0.13976 0.08091,0.11034c-0.0662,-0.03678 -0.05885,0.00736 0.02942,0.13976c0.12505,0.18389 0.2501,0.27952 0.13976,0.10298c-0.02942,-0.05149 -0.02207,-0.05885 0.03678,-0.02942c0.04413,0.02942 0.05885,0.08827 0.03678,0.1324c-0.02942,0.04413 0.02942,0.14712 0.12505,0.22067c0.09562,0.08091 0.1324,0.12505 0.08091,0.09562c-0.08091,-0.04413 -0.08827,-0.02207 -0.02942,0.08091c0.08827,0.16183 0.34572,0.47812 0.27216,0.33837c-0.08091,-0.15447 0.02942,-0.09562 0.11769,0.0662c0.05885,0.11769 0.05885,0.14712 -0.00736,0.10298c-0.13976,-0.08827 0.14712,0.42663 0.32365,0.57375c0.08091,0.07356 0.11034,0.11769 0.05885,0.08827c-0.07356,-0.03678 -0.07356,-0.00736 -0.00736,0.13976c0.05149,0.10298 0.11769,0.16918 0.14712,0.14712c0.03678,-0.02207 0.04413,0.02207 0.01471,0.08827c-0.02942,0.08827 -0.02207,0.11034 0.03678,0.07356c0.05885,-0.03678 0.07356,-0.00736 0.03678,0.07356c-0.02942,0.08827 -0.02207,0.11034 0.03678,0.07356c0.05885,-0.03678 0.07356,-0.00736 0.03678,0.07356c-0.02942,0.08827 -0.02207,0.11034 0.03678,0.07356c0.05885,-0.03678 0.07356,-0.00736 0.03678,0.07356c-0.02942,0.08827 -0.02207,0.11034 0.03678,0.07356c0.05885,-0.03678 0.07356,-0.00736 0.03678,0.07356c-0.03678,0.09562 -0.02207,0.11034 0.05149,0.0662c0.0662,-0.03678 0.08091,-0.02942 0.04413,0.02942c-0.0662,0.11034 0.02207,0.38986 0.11034,0.33837c0.03678,-0.02207 0.04413,0.01471 0.01471,0.08091c-0.02942,0.08091 -0.02207,0.11034 0.02942,0.08091c0.05149,-0.03678 0.0662,0.00736 0.03678,0.11034c-0.02207,0.10298 -0.00736,0.13976 0.04413,0.10298c0.05885,-0.03678 0.07356,-0.00736 0.03678,0.07356c-0.03678,0.09562 -0.02207,0.11034 0.05149,0.0662c0.0662,-0.03678 0.08091,-0.02942 0.04413,0.02942c-0.0662,0.10298 0.01471,0.38986 0.10298,0.33837c0.02942,-0.02207 0.04413,0.03678 0.01471,0.12505c-0.02207,0.09562 -0.00736,0.13976 0.03678,0.11034c0.05149,-0.03678 0.0662,0.00736 0.03678,0.11034c-0.02942,0.11769 -0.01471,0.13976 0.05885,0.09562c0.05885,-0.03678 0.08091,-0.02942 0.04413,0.02207c-0.0662,0.10298 0.02942,0.46341 0.10298,0.41928c0.03678,-0.02207 0.04413,0.03678 0.01471,0.12505c-0.02942,0.11769 -0.01471,0.13976 0.05885,0.09562c0.05885,-0.03678 0.08091,-0.02942 0.04413,0.02207c-0.05885,0.10298 0.02207,0.47077 0.10298,0.41928c0.02942,-0.01471 0.03678,0.05149 0.01471,0.16183c-0.02942,0.13976 -0.01471,0.17654 0.05885,0.1324c0.0662,-0.03678 0.08091,-0.02942 0.04413,0.02207c-0.0662,0.11034 0.18389,1.27255 0.26481,1.22106c0.02942,-0.02207 0.03678,0.00736 0.02207,0.0662c-0.02207,0.05149 0.00736,0.41192 0.07356,0.79442c0.21332,1.31668 0.29423,3.03057 0.19861,4.3399c-0.08091,1.14014 -0.29423,2.63336 -0.46341,3.2586c-0.04413,0.15447 -0.05885,0.33101 -0.03678,0.38986c0.02207,0.05885 0.00736,0.08091 -0.02942,0.05885c-0.04413,-0.02207 -0.07356,0.00736 -0.07356,0.07356c0,0.05885 -0.11769,0.47812 -0.26481,0.91947c-0.13976,0.4487 -0.23538,0.84591 -0.20596,0.8974c0.02942,0.05149 0.02207,0.05885 -0.02942,0.02942c-0.08091,-0.05149 -0.11769,0.05149 -0.11034,0.30159c0.00736,0.05149 -0.01471,0.08091 -0.04413,0.05885c-0.08091,-0.04413 -0.24274,0.46341 -0.18389,0.55904c0.03678,0.05885 0.02207,0.0662 -0.04413,0.02942c-0.07356,-0.04413 -0.08827,-0.02942 -0.05149,0.0662c0.02942,0.0662 0.02207,0.10298 -0.01471,0.08091c-0.08827,-0.05149 -0.17654,0.22803 -0.11034,0.33837c0.03678,0.05885 0.02207,0.0662 -0.04413,0.02942c-0.07356,-0.04413 -0.08827,-0.02942 -0.05149,0.0662c0.03678,0.08091 0.02207,0.11034 -0.03678,0.07356c-0.05885,-0.03678 -0.0662,-0.01471 -0.03678,0.07356c0.03678,0.08091 0.02207,0.11034 -0.03678,0.07356c-0.05885,-0.03678 -0.0662,-0.01471 -0.03678,0.07356c0.03678,0.08091 0.02207,0.11034 -0.03678,0.07356c-0.05885,-0.03678 -0.0662,-0.01471 -0.03678,0.07356c0.03678,0.08091 0.02207,0.11034 -0.03678,0.07356c-0.05885,-0.03678 -0.0662,-0.01471 -0.03678,0.07356c0.03678,0.08091 0.02207,0.11034 -0.03678,0.07356c-0.05885,-0.03678 -0.0662,-0.01471 -0.03678,0.07356c0.03678,0.08091 0.02207,0.11034 -0.03678,0.07356c-0.05885,-0.03678 -0.0662,-0.00736 -0.02942,0.08827c0.02942,0.07356 0.02942,0.11034 0,0.08091c-0.07356,-0.07356 -0.26481,0.22803 -0.20596,0.33101c0.03678,0.05149 0.02207,0.05885 -0.04413,0.02207c-0.07356,-0.04413 -0.08827,-0.02942 -0.05149,0.0662c0.02942,0.0662 0.02207,0.11034 -0.01471,0.08827c-0.03678,-0.02207 -0.08827,0.00736 -0.11034,0.07356c-0.02942,0.0662 -0.01471,0.09562 0.03678,0.05885c0.05885,-0.02942 0.05149,0 0,0.11034c-0.05149,0.08091 -0.10298,0.15447 -0.12505,0.15447c-0.02207,0 -0.01471,-0.03678 0.00736,-0.07356c0.02207,-0.03678 0.02942,-0.07356 0.00736,-0.07356c-0.02207,0 -0.07356,0.07356 -0.12505,0.15447c-0.05149,0.11034 -0.05885,0.13976 0,0.11034c0.05149,-0.03678 0.0662,-0.00736 0.03678,0.05885c-0.02207,0.0662 -0.07356,0.09562 -0.11034,0.07356c-0.03678,-0.02207 -0.0662,-0.02942 -0.0662,-0.01471c0,0.01471 3.64846,3.66317 8.10605,8.11341l8.11341,8.09134l-8.05456,-8.09134l-8.05456,-8.09134l8.05456,8.03985c4.47966,4.46495 8.06192,8.09869 8.06927,8.17225c0.00736,0.08091 -0.05149,0.19861 -0.12505,0.26481c-0.08091,0.07356 -0.12505,0.16183 -0.09562,0.20596c0.02207,0.03678 0.00736,0.05149 -0.02942,0.02942c-0.09562,-0.05885 -0.26481,0.12505 -0.18389,0.20596c0.02942,0.03678 0.01471,0.03678 -0.02942,0.01471c-0.10298,-0.05885 -0.27216,0.12505 -0.19125,0.20596c0.02942,0.03678 0.01471,0.03678 -0.02942,0.01471c-0.10298,-0.05885 -0.27216,0.12505 -0.19125,0.20596c0.02942,0.03678 0.01471,0.03678 -0.02942,0.01471c-0.10298,-0.05885 -0.27216,0.12505 -0.19125,0.20596c0.02942,0.03678 0.01471,0.03678 -0.02942,0.01471c-0.10298,-0.05885 -0.27216,0.12505 -0.19125,0.20596c0.02942,0.03678 0.01471,0.03678 -0.02942,0.01471c-0.10298,-0.05885 -0.27216,0.12505 -0.19125,0.20596c0.02942,0.03678 0.01471,0.03678 -0.02942,0.01471c-0.10298,-0.05885 -0.27216,0.12505 -0.19125,0.20596c0.02942,0.03678 0.01471,0.03678 -0.02942,0.01471c-0.10298,-0.05885 -0.27216,0.12505 -0.19125,0.20596c0.02942,0.03678 0.01471,0.03678 -0.02942,0.01471c-0.10298,-0.05885 -0.27216,0.12505 -0.19125,0.20596c0.02942,0.03678 0.01471,0.03678 -0.02942,0.01471c-0.10298,-0.05885 -0.27216,0.12505 -0.19125,0.20596c0.02942,0.03678 0.01471,0.03678 -0.02942,0.01471c-0.10298,-0.05885 -0.27216,0.12505 -0.19125,0.20596c0.02942,0.03678 0.01471,0.03678 -0.02942,0.01471c-0.10298,-0.05885 -0.27216,0.12505 -0.19125,0.20596c0.02942,0.03678 0.01471,0.03678 -0.02942,0.01471c-0.10298,-0.05885 -0.27216,0.12505 -0.19125,0.20596c0.02942,0.03678 0.01471,0.03678 -0.02942,0.01471c-0.10298,-0.05885 -0.27216,0.12505 -0.19125,0.20596c0.02942,0.03678 0.01471,0.03678 -0.02942,0.01471c-0.10298,-0.05885 -0.27216,0.12505 -0.19125,0.20596c0.02942,0.03678 0.01471,0.03678 -0.02942,0.01471c-0.10298,-0.05885 -0.27216,0.12505 -0.19125,0.20596c0.02942,0.03678 0.01471,0.03678 -0.02942,0.01471c-0.10298,-0.05885 -0.27216,0.12505 -0.19125,0.20596c0.02942,0.03678 0.01471,0.03678 -0.02942,0.01471c-0.10298,-0.05885 -0.27216,0.12505 -0.19125,0.20596c0.02942,0.03678 0.01471,0.03678 -0.02942,0.01471c-0.10298,-0.05885 -0.27216,0.12505 -0.19125,0.20596c0.02942,0.03678 0.01471,0.03678 -0.02942,0.01471c-0.10298,-0.05885 -0.27216,0.12505 -0.19125,0.20596c0.02942,0.03678 0.01471,0.03678 -0.02942,0.01471c-0.10298,-0.05885 -0.27216,0.12505 -0.19125,0.20596c0.02942,0.03678 0.01471,0.03678 -0.02942,0.01471c-0.10298,-0.05885 -0.27216,0.12505 -0.19125,0.20596c0.02942,0.03678 0.01471,0.03678 -0.02942,0.01471c-0.10298,-0.05885 -0.27216,0.12505 -0.19125,0.20596c0.02942,0.03678 0.01471,0.03678 -0.02942,0.01471c-0.10298,-0.05885 -0.27216,0.12505 -0.19125,0.20596c0.02942,0.03678 0.01471,0.03678 -0.02942,0.01471c-0.10298,-0.05885 -0.27216,0.12505 -0.19125,0.20596c0.02942,0.03678 0.01471,0.03678 -0.02942,0.01471c-0.10298,-0.05885 -0.27216,0.12505 -0.19125,0.20596c0.02942,0.03678 0.01471,0.03678 -0.02942,0.01471c-0.05149,-0.02942 -0.12505,0 -0.17654,0.05149c-0.04413,0.05885 -0.14712,0.10298 -0.22067,0.09562c-0.08091,-0.00736 -3.6411,-3.51605 -8.21639,-8.10605l-8.07663,-8.09134l8.12812,8.09134l8.12812,8.09134l-8.09134,-8.11341c-4.45024,-4.45759 -8.12076,-8.09134 -8.1649,-8.07663c-0.03678,0.01471 -0.0662,0.05885 -0.05885,0.10298c0.01471,0.05149 -0.02942,0.0662 -0.10298,0.03678c-0.07356,-0.02942 -0.10298,-0.01471 -0.07356,0.02942c0.02942,0.04413 -0.00736,0.07356 -0.08091,0.0662c-0.0662,0 -0.11769,0.02942 -0.11034,0.08091c0.01471,0.05885 -0.02942,0.07356 -0.10298,0.04413c-0.08827,-0.03678 -0.10298,-0.02207 -0.05885,0.05149c0.03678,0.0662 0.02942,0.08091 -0.02207,0.04413c-0.10298,-0.0662 -0.6988,0.27216 -0.62524,0.35308c0.02942,0.02942 -0.00736,0.02942 -0.08091,0c-0.09562,-0.03678 -0.12505,-0.02942 -0.08827,0.02942c0.03678,0.05885 0.00736,0.07356 -0.07356,0.03678c-0.08827,-0.02942 -0.11034,-0.02207 -0.07356,0.03678c0.03678,0.05885 0.00736,0.07356 -0.07356,0.03678c-0.08827,-0.02942 -0.11034,-0.02207 -0.07356,0.03678c0.03678,0.05885 0.00736,0.07356 -0.07356,0.03678c-0.08827,-0.02942 -0.11034,-0.02207 -0.07356,0.03678c0.03678,0.05885 0.00736,0.07356 -0.07356,0.03678c-0.08827,-0.02942 -0.11034,-0.02207 -0.07356,0.03678c0.03678,0.05885 0.00736,0.07356 -0.07356,0.03678c-0.09562,-0.03678 -0.11034,-0.02207 -0.0662,0.05149c0.03678,0.0662 0.02942,0.08091 -0.02942,0.04413c-0.11769,-0.07356 -0.38986,0.02207 -0.33101,0.11769c0.02942,0.04413 0.01471,0.05885 -0.02207,0.03678c-0.11769,-0.07356 -0.54433,0.09562 -0.48548,0.19125c0.02207,0.04413 0.00736,0.05149 -0.04413,0.02207c-0.10298,-0.0662 -0.60317,0.10298 -0.55168,0.19125c0.02207,0.02942 -0.00736,0.04413 -0.05885,0.02207c-0.13976,-0.05149 -1.61827,0.43399 -1.55207,0.5149c0.02942,0.02942 0.01471,0.03678 -0.02942,0.00736c-0.1324,-0.07356 -0.61788,0.02942 -0.55904,0.12505c0.02207,0.04413 0.00736,0.05149 -0.03678,0.02207c-0.09562,-0.05885 -0.68409,0.02942 -0.63995,0.09562c0.01471,0.02942 -0.07356,0.03678 -0.19861,0.02207c-0.13976,-0.02207 -0.20596,-0.00736 -0.18389,0.03678c0.02942,0.04413 -0.02207,0.05885 -0.12505,0.04413c-0.08827,-0.02207 -0.36043,0 -0.60317,0.04413c-0.23538,0.04413 -0.98567,0.11769 -1.65505,0.16918c-1.44173,0.09562 -3.14091,0.00736 -4.53115,-0.2501c-0.47812,-0.08827 -0.97096,-0.16183 -1.10336,-0.16183c-0.12505,-0.00736 -0.21332,-0.03678 -0.19125,-0.07356c0.02207,-0.03678 -0.04413,-0.05149 -0.14712,-0.02942c-0.11034,0.02207 -0.18389,0.01471 -0.16183,-0.01471c0.04413,-0.07356 -0.67673,-0.24274 -0.77971,-0.17654c-0.05885,0.03678 -0.0662,0.02207 -0.02942,-0.04413c0.04413,-0.07356 0.02207,-0.08827 -0.09562,-0.05885c-0.08827,0.02942 -0.14712,0.02207 -0.12505,-0.00736c0.04413,-0.08091 -0.53697,-0.24274 -0.64731,-0.18389c-0.04413,0.02942 -0.0662,0.02207 -0.02942,-0.00736c0.0662,-0.08091 -0.61053,-0.34572 -0.74293,-0.29423c-0.05149,0.02207 -0.08091,0.00736 -0.05885,-0.02942c0.05149,-0.08091 -0.38986,-0.24274 -0.49284,-0.17654c-0.03678,0.02207 -0.05149,0.00736 -0.02942,-0.02942c0.0662,-0.10298 -0.35308,-0.27216 -0.47077,-0.19861c-0.05885,0.03678 -0.0662,0.02207 -0.02942,-0.04413c0.04413,-0.07356 0.02942,-0.08827 -0.0662,-0.05149c-0.08091,0.03678 -0.11034,0.02207 -0.07356,-0.03678c0.03678,-0.05885 0.01471,-0.0662 -0.07356,-0.03678c-0.08091,0.03678 -0.11034,0.02207 -0.07356,-0.03678c0.03678,-0.05885 0.01471,-0.0662 -0.07356,-0.03678c-0.08091,0.03678 -0.11034,0.02207 -0.07356,-0.03678c0.03678,-0.05885 0.01471,-0.0662 -0.07356,-0.03678c-0.08091,0.03678 -0.11034,0.02207 -0.07356,-0.03678c0.03678,-0.05885 0.01471,-0.0662 -0.07356,-0.03678c-0.08091,0.03678 -0.11034,0.02207 -0.07356,-0.03678c0.03678,-0.05885 0.00736,-0.0662 -0.08827,-0.02942c-0.07356,0.02942 -0.11034,0.02942 -0.08091,0c0.07356,-0.07356 -0.22803,-0.26481 -0.33101,-0.20596c-0.05149,0.03678 -0.05885,0.02207 -0.02207,-0.04413c0.04413,-0.07356 0.02942,-0.08827 -0.0662,-0.05149c-0.08091,0.03678 -0.11034,0.02207 -0.07356,-0.03678c0.03678,-0.05885 0.01471,-0.0662 -0.07356,-0.03678c-0.08091,0.03678 -0.11034,0.02207 -0.07356,-0.03678c0.03678,-0.05885 0.01471,-0.0662 -0.0662,-0.03678c-0.0662,0.02207 -0.13976,0.00736 -0.16918,-0.03678c-0.03678,-0.05149 -0.01471,-0.05885 0.04413,-0.02207c0.0662,0.04413 0.08091,0.02942 0.04413,-0.02942c-0.03678,-0.05149 -0.10298,-0.07356 -0.16183,-0.05149c-0.05885,0.02207 -0.09562,0 -0.08091,-0.05149c0.00736,-0.05149 -0.04413,-0.08091 -0.11034,-0.08091c-0.07356,0.00736 -0.11034,-0.02207 -0.08091,-0.0662c0.02942,-0.04413 0,-0.05885 -0.07356,-0.02942c-0.0662,0.02207 -0.13976,0.00736 -0.16918,-0.03678c-0.03678,-0.05149 -0.01471,-0.05885 0.04413,-0.02207c0.0662,0.04413 0.08091,0.02942 0.04413,-0.02942c-0.03678,-0.05149 -0.10298,-0.07356 -0.16183,-0.05149c-0.05149,0.02207 -0.11769,0 -0.14712,-0.04413c-0.03678,-0.05149 -0.01471,-0.05885 0.05149,-0.02942c0.05885,0.02942 0.02207,-0.01471 -0.08091,-0.09562c-0.17654,-0.14712 -0.26481,-0.18389 -0.3825,-0.16183c-0.03678,0 -0.05149,-0.03678 -0.03678,-0.08827c0.00736,-0.04413 -0.04413,-0.08827 -0.11034,-0.08827c-0.0662,0 -0.14712,-0.02942 -0.18389,-0.0662c-0.03678,-0.03678 -0.01471,-0.04413 0.05149,-0.01471c0.05885,0.02942 0.04413,0.00736 -0.02942,-0.05885c-0.07356,-0.05885 -0.16183,-0.09562 -0.19861,-0.08091c-0.02942,0.02207 -0.08091,0 -0.11034,-0.04413c-0.03678,-0.05885 -0.01471,-0.07356 0.05149,-0.03678c0.05885,0.02942 0.03678,0.00736 -0.03678,-0.05885c-0.07356,-0.05885 -0.16183,-0.09562 -0.19125,-0.08091c-0.02942,0.02207 -0.10298,-0.02207 -0.15447,-0.09562c-0.09562,-0.11769 -0.09562,-0.11769 0.04413,-0.01471c0.13976,0.10298 0.13976,0.10298 0.04413,-0.02207c-0.05885,-0.07356 -0.14712,-0.11769 -0.19861,-0.09562c-0.05149,0.01471 -0.14712,-0.03678 -0.22803,-0.12505c-0.1324,-0.16183 -0.1324,-0.16183 0.02207,-0.05149c0.08091,0.05885 0.05149,0.01471 -0.05885,-0.09562c-0.11769,-0.11034 -0.24274,-0.18389 -0.27216,-0.16918c-0.02942,0.02207 -0.15447,-0.0662 -0.27216,-0.19861l-0.21332,-0.23538l0.22803,0.18389c0.12505,0.10298 0.02942,-0.00736 -0.21332,-0.23538c-0.24274,-0.22803 -0.47812,-0.41192 -0.52226,-0.40457c-0.04413,0.00736 -0.07356,-0.02942 -0.0662,-0.07356c0.01471,-0.05149 -0.30159,-0.41928 -0.69144,-0.80913c-0.38986,-0.39721 -0.62524,-0.65466 -0.52961,-0.57375c0.10298,0.08091 0.05149,0.01471 -0.11769,-0.14712c-0.16183,-0.16183 -0.23538,-0.24274 -0.14712,-0.18389c0.14712,0.11034 0.14712,0.11034 0.00736,-0.07356c-0.08091,-0.10298 -0.26481,-0.29423 -0.40457,-0.43399c-0.14712,-0.13976 -0.19861,-0.20596 -0.12505,-0.14712c0.13976,0.10298 0.13976,0.09562 0.01471,-0.09562c-0.12505,-0.19125 -0.25745,-0.30159 -0.14712,-0.11769c0.02942,0.05149 0.02207,0.05885 -0.03678,0.02942c-0.04413,-0.02942 -0.05885,-0.08827 -0.03678,-0.1324c0.02942,-0.04413 -0.04413,-0.16183 -0.16183,-0.26481c-0.11769,-0.09562 -0.16183,-0.15447 -0.10298,-0.12505c0.05885,0.02942 0.02942,-0.02207 -0.07356,-0.11034c-0.10298,-0.08827 -0.13976,-0.1324 -0.08091,-0.10298c0.07356,0.03678 0.0662,-0.01471 -0.02942,-0.17654c-0.07356,-0.12505 -0.16183,-0.21332 -0.19861,-0.19125c-0.03678,0.02207 -0.05885,0.01471 -0.05149,-0.02207c0.02207,-0.14712 -0.01471,-0.2501 -0.08091,-0.20596c-0.03678,0.02207 -0.05149,0 -0.02942,-0.0662c0.02207,-0.05885 -0.02207,-0.13976 -0.10298,-0.18389c-0.08091,-0.04413 -0.16183,-0.1324 -0.19125,-0.19125c-0.02942,-0.07356 -0.01471,-0.10298 0.03678,-0.0662c0.05885,0.02942 0.05149,0 0,-0.11034c-0.05149,-0.08091 -0.11769,-0.15447 -0.15447,-0.15447c-0.04413,0 -0.0662,-0.02207 -0.0662,-0.05885c0.02207,-0.13976 -0.01471,-0.24274 -0.08091,-0.19861c-0.03678,0.02207 -0.05149,0 -0.02942,-0.05885c0.05149,-0.1324 -0.22067,-0.58846 -0.30159,-0.50755c-0.03678,0.02942 -0.03678,0.00736 -0.00736,-0.04413c0.0662,-0.11769 -0.02207,-0.39721 -0.11034,-0.34572c-0.03678,0.02207 -0.04413,-0.01471 -0.01471,-0.08091c0.02942,-0.08827 0.02207,-0.11034 -0.03678,-0.07356c-0.05885,0.03678 -0.07356,0.00736 -0.03678,-0.07356c0.03678,-0.09562 0.02207,-0.11034 -0.05149,-0.0662c-0.0662,0.03678 -0.08091,0.02942 -0.04413,-0.02942c0.07356,-0.11769 -0.02207,-0.38986 -0.11769,-0.33101c-0.05149,0.02942 -0.05885,0.01471 -0.02942,-0.03678c0.0662,-0.10298 -0.01471,-0.38986 -0.10298,-0.33837c-0.02942,0.02207 -0.04413,-0.03678 -0.01471,-0.12505c0.02207,-0.09562 0.00736,-0.13976 -0.03678,-0.11034c-0.04413,0.02942 -0.08091,0.00736 -0.07356,-0.04413c0.00736,-0.22803 -0.02942,-0.35308 -0.08827,-0.3163c-0.03678,0.02942 -0.05149,-0.02942 -0.02207,-0.11769c0.02207,-0.10298 0.00736,-0.13976 -0.04413,-0.10298c-0.05149,0.02942 -0.07356,0.01471 -0.05149,-0.04413c0.03678,-0.10298 -0.27952,-1.25784 -0.33101,-1.20635c-0.02207,0.01471 -0.03678,-0.05885 -0.04413,-0.16183c0,-0.11034 -0.09562,-0.62524 -0.19861,-1.14014c-0.11034,-0.52226 -0.19861,-1.04452 -0.19861,-1.16221c0,-0.12505 -0.02942,-0.20596 -0.0662,-0.18389c-0.02942,0.02207 -0.05885,-1.10336 -0.05885,-2.4936c0,-1.39024 0.02207,-2.51567 0.05149,-2.50096c0.0662,0.04413 0.24274,-1.26519 0.17654,-1.36817c-0.02942,-0.05149 -0.02207,-0.0662 0.02207,-0.04413c0.09562,0.05885 0.27216,-0.79442 0.19861,-0.91947c-0.02942,-0.04413 -0.02207,-0.05885 0.02207,-0.03678c0.08827,0.05885 0.27216,-0.64731 0.19861,-0.765c-0.02942,-0.05149 -0.02207,-0.0662 0.02207,-0.04413c0.08827,0.05149 0.49284,-1.16957 0.41928,-1.28726c-0.02942,-0.04413 -0.02207,-0.05885 0.02942,-0.02942c0.09562,0.05885 0.19125,-0.21332 0.11769,-0.33101c-0.02942,-0.05885 -0.02207,-0.0662 0.02942,-0.03678c0.08091,0.05149 0.11769,-0.05149 0.11034,-0.30159c-0.00736,-0.05149 0.02207,-0.07356 0.05885,-0.05149c0.03678,0.02207 0.0662,0.02207 0.0662,0c0,-0.01471 0.02207,-0.08827 0.05149,-0.16183c0.02942,-0.08827 0.02207,-0.11034 -0.03678,-0.07356c-0.05885,0.03678 -0.07356,0.01471 -0.04413,-0.05885c0.02207,-0.0662 0.07356,-0.10298 0.10298,-0.08091c0.08091,0.05149 0.16183,-0.17654 0.09562,-0.27216c-0.02942,-0.05149 -0.00736,-0.05885 0.05149,-0.02207c0.07356,0.04413 0.08827,0.02942 0.05149,-0.0662c-0.03678,-0.08091 -0.02207,-0.11034 0.03678,-0.07356c0.05885,0.03678 0.0662,0.01471 0.03678,-0.07356c-0.03678,-0.08091 -0.02207,-0.11034 0.03678,-0.07356c0.05885,0.03678 0.0662,0.01471 0.03678,-0.07356c-0.03678,-0.08091 -0.02207,-0.11034 0.03678,-0.07356c0.05885,0.03678 0.0662,0.01471 0.03678,-0.07356c-0.03678,-0.08091 -0.02207,-0.11034 0.03678,-0.07356c0.05885,0.03678 0.0662,0.01471 0.03678,-0.07356c-0.02942,-0.0662 -0.02207,-0.11034 0.01471,-0.08827c0.02942,0.02207 0.09562,-0.04413 0.14712,-0.14712c0.0662,-0.14712 0.0662,-0.17654 -0.00736,-0.13976c-0.05149,0.02942 -0.04413,0.00736 0.02207,-0.05149c0.0662,-0.05149 0.10298,-0.1324 0.08827,-0.18389c-0.01471,-0.04413 0.00736,-0.11034 0.05885,-0.13976c0.05885,-0.03678 0.07356,-0.02207 0.03678,0.05149c-0.02942,0.05885 0,0.03678 0.05885,-0.04413c0.0662,-0.08091 0.10298,-0.18389 0.08827,-0.23538c-0.02207,-0.05149 0,-0.11034 0.04413,-0.13976c0.05149,-0.03678 0.05885,-0.01471 0.02942,0.05149c-0.02942,0.05885 0,0.03678 0.05885,-0.04413c0.0662,-0.08091 0.10298,-0.18389 0.08827,-0.23538c-0.02207,-0.05149 0,-0.11034 0.04413,-0.13976c0.05149,-0.02942 0.05885,-0.02207 0.02942,0.02942c-0.02942,0.05149 -0.03678,0.08827 -0.01471,0.08827c0.02207,0 0.07356,-0.07356 0.12505,-0.15447c0.05885,-0.11769 0.05885,-0.14712 -0.00736,-0.10298c-0.0662,0.04413 -0.0662,0.01471 -0.00736,-0.10298c0.05149,-0.08091 0.10298,-0.15447 0.12505,-0.15447c0.02207,0 0.01471,0.02942 -0.00736,0.07356c-0.10298,0.16918 0.02942,0.05885 0.14712,-0.11769c0.08827,-0.1324 0.09562,-0.17654 0.02942,-0.13976c-0.05885,0.02942 -0.01471,-0.02207 0.08827,-0.11769c0.24274,-0.22803 0.44135,-0.48548 0.30159,-0.40457c-0.08091,0.05149 -0.08827,0.02942 -0.02207,-0.08827c0.04413,-0.08827 0.12505,-0.17654 0.17654,-0.20596c0.05885,-0.03678 0.05149,-0.01471 -0.01471,0.0662c-0.05149,0.0662 -0.08091,0.12505 -0.05885,0.12505c0.01471,0 0.12505,-0.12505 0.24274,-0.27952c0.13976,-0.19125 0.16183,-0.23538 0.05885,-0.16183c-0.08091,0.05885 -0.02942,-0.00736 0.11769,-0.14712c0.14712,-0.13976 0.21332,-0.22803 0.14712,-0.18389c-0.05885,0.03678 0.03678,-0.07356 0.22067,-0.25745c0.19125,-0.18389 0.25745,-0.26481 0.15447,-0.18389c-0.3163,0.2501 0.37514,-0.54433 1.08865,-1.24312c0.36043,-0.36043 0.72086,-0.66937 0.78707,-0.67673c0.07356,-0.01471 0.21332,-0.11034 0.3163,-0.22803l0.19125,-0.19861l-0.22067,0.17654l-0.22067,0.18389l0.17654,-0.19861c0.09562,-0.11034 0.19861,-0.19125 0.22067,-0.16918c0.07356,0.04413 0.26481,-0.09562 0.26481,-0.19125c0,-0.05149 0.0662,-0.09562 0.13976,-0.11034c0.07356,-0.00736 0.19125,-0.08091 0.25745,-0.14712c0.11034,-0.12505 0.11034,-0.12505 -0.02942,-0.02207c-0.1324,0.09562 -0.13976,0.09562 -0.05149,-0.02207c0.05885,-0.0662 0.13976,-0.11034 0.19125,-0.08827c0.05149,0.02207 0.13976,-0.02207 0.19861,-0.09562c0.09562,-0.12505 0.09562,-0.12505 -0.04413,-0.02207c-0.1324,0.10298 -0.13976,0.10298 -0.05149,-0.01471c0.05885,-0.0662 0.13976,-0.11034 0.19861,-0.08827c0.05149,0.02207 0.11769,0 0.15447,-0.05149c0.03678,-0.05885 0.02207,-0.07356 -0.04413,-0.02942c-0.05885,0.03678 -0.08091,0.02942 -0.04413,-0.02207c0.02942,-0.04413 0.09562,-0.0662 0.14712,-0.04413c0.05149,0.02207 0.13976,-0.02207 0.19861,-0.08827c0.08827,-0.11034 0.08827,-0.12505 0,-0.0662c-0.0662,0.03678 -0.08827,0.02942 -0.05149,-0.02207c0.02942,-0.04413 0.09562,-0.0662 0.14712,-0.04413c0.05885,0.02207 0.12505,0 0.16183,-0.05149c0.03678,-0.05885 0.02207,-0.07356 -0.04413,-0.02942c-0.0662,0.03678 -0.08091,0.02942 -0.04413,-0.02942c0.02942,-0.04413 0.08827,-0.0662 0.12505,-0.04413c0.08091,0.05149 0.3825,-0.13976 0.3163,-0.19861c-0.02207,-0.02207 0.02207,-0.03678 0.09562,-0.03678c0.07356,0.00736 0.12505,-0.02942 0.11034,-0.08091c-0.00736,-0.05885 0.01471,-0.08091 0.05885,-0.05149c0.08827,0.05885 0.38986,-0.13976 0.3163,-0.21332c-0.02942,-0.02942 0.00736,-0.02942 0.08091,0c0.11034,0.04413 0.12505,0.02942 0.08091,-0.04413c-0.03678,-0.0662 -0.02942,-0.08091 0.02207,-0.04413c0.10298,0.05885 0.40457,-0.1324 0.33101,-0.20596c-0.02942,-0.02942 0.00736,-0.02942 0.08091,0c0.09562,0.03678 0.12505,0.02942 0.08827,-0.02942c-0.03678,-0.05885 -0.00736,-0.07356 0.07356,-0.03678c0.08827,0.02942 0.11034,0.02207 0.07356,-0.03678c-0.03678,-0.05885 -0.00736,-0.07356 0.07356,-0.03678c0.08827,0.02942 0.11034,0.02207 0.07356,-0.03678c-0.03678,-0.05885 -0.00736,-0.07356 0.07356,-0.03678c0.08827,0.02942 0.11034,0.02207 0.07356,-0.03678c-0.03678,-0.05885 -0.00736,-0.07356 0.07356,-0.03678c0.08827,0.02942 0.11034,0.02207 0.07356,-0.03678c-0.03678,-0.05885 -0.00736,-0.07356 0.07356,-0.03678c0.08827,0.02942 0.11034,0.02207 0.07356,-0.03678c-0.03678,-0.05885 -0.00736,-0.07356 0.07356,-0.03678c0.08827,0.02942 0.11034,0.02207 0.07356,-0.03678c-0.03678,-0.05885 -0.00736,-0.07356 0.07356,-0.03678c0.09562,0.03678 0.11034,0.02207 0.0662,-0.05149c-0.03678,-0.05885 -0.02942,-0.08091 0.01471,-0.05149c0.10298,0.0662 0.54433,-0.09562 0.49284,-0.17654c-0.02207,-0.03678 0.02207,-0.04413 0.08827,-0.01471c0.08827,0.02942 0.11034,0.02207 0.07356,-0.03678c-0.03678,-0.05885 -0.00736,-0.07356 0.07356,-0.03678c0.09562,0.03678 0.11034,0.02207 0.0662,-0.05149c-0.03678,-0.0662 -0.02942,-0.08091 0.02942,-0.04413c0.10298,0.0662 0.61053,-0.09562 0.55904,-0.17654c-0.02207,-0.02942 0.03678,-0.04413 0.12505,-0.01471c0.08091,0.02207 0.13976,0.00736 0.11769,-0.02942c-0.02942,-0.03678 0.02942,-0.0662 0.11034,-0.07356c0.26481,-0.00736 1.82423,-0.5149 1.76538,-0.57375c-0.02942,-0.02942 0,-0.02942 0.0662,-0.00736c0.0662,0.02942 0.44135,-0.02207 0.83856,-0.11034c0.40457,-0.08091 1.07394,-0.19861 1.50058,-0.2501c1.14014,-0.14712 3.72937,-0.14712 4.89158,0.00736zM417.42209,294.39825l-0.80913,0.8312l0.8312,-0.80913c0.4487,-0.44135 0.82385,-0.81649 0.82385,-0.82385c0,-0.05885 -0.09562,0.03678 -0.84591,0.80178zM445.49903,294.16286c-0.02207,0 0.03678,0.08091 0.1324,0.18389c0.09562,0.10298 0.19125,0.18389 0.20596,0.18389c0.02207,0 -0.03678,-0.08091 -0.1324,-0.18389c-0.09562,-0.10298 -0.19125,-0.18389 -0.20596,-0.18389zM430.11078,295.31036c-0.91947,0.13976 -1.24312,0.20596 -1.20635,0.25745c0.02207,0.03678 -0.01471,0.04413 -0.07356,0.02207c-0.14712,-0.05885 -0.86798,0.11034 -0.81649,0.19125c0.01471,0.02942 -0.05149,0.03678 -0.16183,0.01471c-0.12505,-0.02207 -0.17654,-0.00736 -0.13976,0.04413c0.02942,0.04413 -0.01471,0.05885 -0.11769,0.02942c-0.09562,-0.02207 -0.13976,-0.00736 -0.11034,0.03678c0.03678,0.05149 -0.00736,0.0662 -0.11034,0.03678c-0.09562,-0.02207 -0.13976,-0.00736 -0.11034,0.03678c0.03678,0.05149 -0.00736,0.0662 -0.11034,0.03678c-0.11769,-0.02942 -0.13976,-0.01471 -0.09562,0.05885c0.03678,0.0662 0.02942,0.08091 -0.02942,0.04413c-0.11769,-0.07356 -0.38986,0.02207 -0.33101,0.11769c0.02942,0.05149 0.01471,0.05885 -0.03678,0.02942c-0.11034,-0.0662 -0.38986,0.02207 -0.33837,0.11034c0.02207,0.03678 -0.01471,0.04413 -0.08091,0.01471c-0.09562,-0.03678 -0.11034,-0.02207 -0.0662,0.05149c0.03678,0.05885 0.02942,0.08091 -0.02207,0.04413c-0.10298,-0.0662 -0.46341,0.10298 -0.40457,0.19861c0.02207,0.04413 0.00736,0.05149 -0.03678,0.02207c-0.08091,-0.04413 -0.82385,0.27952 -0.82385,0.36779c0,0.02207 0.03678,0.01471 0.08827,-0.01471c0.05149,-0.02942 0.05885,-0.02207 0.02942,0.03678c-0.02942,0.04413 -0.08827,0.0662 -0.12505,0.04413c-0.08827,-0.05885 -0.50755,0.19125 -0.46341,0.27216c0.02207,0.02942 -0.00736,0.03678 -0.0662,0.01471c-0.05885,-0.02207 -0.14712,0.02207 -0.20596,0.08827c-0.08827,0.11034 -0.08827,0.12505 0,0.0662c0.0662,-0.03678 0.08827,-0.02942 0.05149,0.02207c-0.02942,0.04413 -0.08827,0.0662 -0.13976,0.05149c-0.05149,-0.02207 -0.16918,0.03678 -0.27216,0.12505c-0.10298,0.09562 -0.13976,0.1324 -0.07356,0.09562c0.09562,-0.0662 0.09562,-0.05885 0.01471,0.05149c-0.05885,0.0662 -0.13976,0.11034 -0.19125,0.08827c-0.05149,-0.02207 -0.15447,0.04413 -0.23538,0.1324c-0.13976,0.16918 -0.13976,0.16918 0.00736,0.05885c0.1324,-0.10298 0.13976,-0.10298 0.04413,0.01471c-0.05149,0.07356 -0.12505,0.11034 -0.16183,0.08827c-0.03678,-0.02207 -0.19125,0.08827 -0.34572,0.24274c-0.27216,0.27216 -0.27216,0.27952 -0.01471,0.05885l0.25745,-0.22067l-0.2501,0.27216c-0.13976,0.15447 -0.27216,0.25745 -0.30894,0.24274c-0.08091,-0.05149 -0.52226,0.38986 -0.47812,0.47077c0.02942,0.03678 -0.14712,0.24274 -0.3825,0.46341c-0.22803,0.21332 -0.36043,0.33837 -0.27952,0.27952c0.13976,-0.11034 0.13976,-0.11034 0,0.08827c-0.07356,0.10298 -0.16918,0.18389 -0.19861,0.18389c-0.03678,-0.00736 -0.14712,0.10298 -0.25745,0.24274c-0.11034,0.13976 -0.14712,0.22067 -0.08827,0.18389c0.0662,-0.04413 0.02942,0.00736 -0.07356,0.10298c-0.10298,0.09562 -0.1324,0.14712 -0.07356,0.11769c0.05885,-0.02942 0.02942,0.02207 -0.07356,0.11034c-0.10298,0.08827 -0.13976,0.13976 -0.08827,0.11034c0.08091,-0.04413 0.08827,-0.02207 0.02207,0.10298c-0.05149,0.08091 -0.10298,0.15447 -0.12505,0.15447c-0.02207,0 -0.01471,-0.03678 0.00736,-0.07356c0.02207,-0.04413 0.02942,-0.07356 0.00736,-0.07356c-0.02207,0 -0.07356,0.07356 -0.12505,0.15447c-0.0662,0.12505 -0.05885,0.14712 0.02207,0.10298c0.05149,-0.03678 0.00736,0.02207 -0.10298,0.1324c-0.19861,0.19125 -0.27952,0.32365 -0.1324,0.23538c0.04413,-0.02207 0.05149,0.00736 0.02942,0.0662c-0.02207,0.0662 -0.0662,0.10298 -0.09562,0.08091c-0.02942,-0.01471 -0.11034,0.08827 -0.18389,0.22803c-0.0662,0.14712 -0.08827,0.24274 -0.04413,0.21332c0.04413,-0.02207 0.05149,0 0.02942,0.0662c-0.02207,0.0662 -0.0662,0.10298 -0.10298,0.08091c-0.07356,-0.04413 -0.23538,0.32365 -0.17654,0.41928c0.02942,0.04413 0.01471,0.05885 -0.02942,0.02942c-0.09562,-0.05885 -0.19125,0.21332 -0.11769,0.33101c0.03678,0.05885 0.02207,0.0662 -0.04413,0.02942c-0.07356,-0.04413 -0.08827,-0.02207 -0.05885,0.09562c0.02942,0.08827 0.01471,0.14712 -0.01471,0.12505c-0.08827,-0.05149 -0.16918,0.23538 -0.10298,0.33837c0.02942,0.05149 0.02207,0.0662 -0.02207,0.04413c-0.08827,-0.05149 -0.3163,0.6988 -0.54433,1.76538c-0.19861,0.91211 -0.27216,3.1262 -0.14712,4.10452c0.12505,0.94154 0.3825,2.02283 0.47077,1.97134c0.04413,-0.02207 0.05149,-0.00736 0.02207,0.03678c-0.07356,0.11769 0.02942,0.46341 0.12505,0.40457c0.04413,-0.02207 0.05149,-0.00736 0.02207,0.03678c-0.0662,0.10298 0.02942,0.46341 0.10298,0.41928c0.03678,-0.02207 0.04413,0.03678 0.01471,0.12505c-0.02207,0.09562 -0.00736,0.13976 0.03678,0.11034c0.04413,-0.02942 0.08091,-0.00736 0.07356,0.04413c-0.00736,0.23538 0.02942,0.35308 0.09562,0.30894c0.04413,-0.02942 0.05149,0.00736 0.02207,0.08091c-0.03678,0.09562 -0.02207,0.11034 0.05149,0.0662c0.05885,-0.03678 0.08091,-0.02942 0.05149,0.01471c-0.07356,0.11769 0.09562,0.54433 0.19125,0.48548c0.04413,-0.02207 0.05149,-0.00736 0.02207,0.03678c-0.04413,0.08091 0.21332,0.67673 0.29423,0.67673c0.02207,0 0.01471,-0.03678 -0.01471,-0.08827c-0.02942,-0.05149 -0.02207,-0.05885 0.03678,-0.02942c0.04413,0.02942 0.0662,0.08827 0.03678,0.12505c-0.03678,0.0662 0.30159,0.72822 0.3825,0.72822c0.02207,0 0.01471,-0.03678 -0.00736,-0.07356c-0.02207,-0.04413 -0.02942,-0.07356 -0.00736,-0.07356c0.02207,0 0.07356,0.07356 0.12505,0.15447c0.0662,0.12505 0.05885,0.14712 -0.02207,0.10298c-0.05149,-0.02942 -0.01471,0.02207 0.08827,0.11034c0.10298,0.08827 0.13976,0.13976 0.08091,0.11034c-0.17654,-0.09562 0.11769,0.28687 0.36043,0.47077c0.12505,0.08827 0.20596,0.19861 0.17654,0.23538c-0.02207,0.04413 0.27952,0.39721 0.68409,0.78707c0.40457,0.39721 0.50019,0.50019 0.21332,0.23538l-0.52226,-0.47812l0.55168,0.57375c0.30159,0.30894 0.58846,0.55168 0.6326,0.53697c0.05149,-0.02207 0.16183,0.05149 0.25745,0.16183l0.17654,0.19861l-0.22067,-0.18389l-0.22067,-0.18389l0.18389,0.20596c0.09562,0.11034 0.22067,0.18389 0.26481,0.16918c0.05149,-0.02207 0.1324,0.02207 0.19125,0.08827c0.08827,0.11769 0.08091,0.11769 -0.05149,0.01471c-0.14712,-0.11034 -0.14712,-0.10298 -0.00736,0.05885c0.08091,0.08827 0.19125,0.15447 0.25745,0.14712c0.0662,-0.01471 0.11769,0.02942 0.11769,0.08827c0,0.05885 0.05885,0.10298 0.12505,0.10298c0.07356,-0.00736 0.11769,0.02207 0.11034,0.07356c-0.00736,0.04413 0.04413,0.07356 0.11034,0.07356c0.07356,-0.00736 0.11769,0.02207 0.11034,0.07356c-0.00736,0.04413 0.04413,0.07356 0.11034,0.07356c0.07356,-0.00736 0.11769,0.00736 0.09562,0.03678c-0.04413,0.07356 0.38986,0.3163 0.47077,0.26481c0.03678,-0.02207 0.09562,0 0.12505,0.04413c0.02942,0.05885 0.02207,0.0662 -0.02942,0.03678c-0.05149,-0.02942 -0.08827,-0.03678 -0.08827,-0.01471c0,0.08827 1.18428,0.6326 1.26519,0.58846c0.04413,-0.02942 0.05885,-0.02207 0.02942,0.02942c-0.05885,0.09562 0.21332,0.19125 0.33101,0.11769c0.05149,-0.02942 0.0662,-0.02207 0.03678,0.02942c-0.05885,0.09562 0.21332,0.19125 0.33101,0.11769c0.05149,-0.02942 0.0662,-0.02207 0.04413,0.02207c-0.05885,0.09562 0.28687,0.19861 0.40457,0.12505c0.04413,-0.02942 0.05885,-0.02207 0.03678,0.02207c-0.05885,0.09562 0.28687,0.19861 0.40457,0.12505c0.04413,-0.02942 0.05885,-0.02207 0.03678,0.02207c-0.05885,0.09562 0.70615,0.27952 0.8312,0.20596c0.05885,-0.03678 0.08091,-0.02942 0.05149,0.01471c-0.11034,0.18389 2.14788,0.42663 3.33216,0.36043c1.00038,-0.05149 1.55207,-0.11769 1.50793,-0.18389c-0.01471,-0.02942 0.08827,-0.03678 0.23538,-0.02207c0.19861,0.02942 0.2501,0.00736 0.20596,-0.05885c-0.03678,-0.0662 -0.02942,-0.08091 0.02942,-0.04413c0.11034,0.07356 0.68409,-0.02207 0.6326,-0.10298c-0.02207,-0.02942 0.02207,-0.04413 0.09562,-0.02207c0.19861,0.05149 1.57413,-0.41192 1.51529,-0.50755c-0.02942,-0.05149 -0.01471,-0.05885 0.03678,-0.02942c0.11034,0.0662 0.38986,-0.02207 0.33837,-0.11034c-0.02207,-0.03678 0.01471,-0.04413 0.08091,-0.01471c0.09562,0.03678 0.11034,0.02207 0.0662,-0.05149c-0.04413,-0.0662 -0.02942,-0.08091 0.02942,-0.03678c0.11769,0.0662 0.67673,-0.18389 0.61788,-0.27952c-0.02207,-0.04413 -0.00736,-0.05149 0.03678,-0.02207c0.11034,0.0662 0.39721,-0.08827 0.34572,-0.17654c-0.02942,-0.04413 0.00736,-0.05149 0.08091,-0.02207c0.08827,0.02942 0.11034,0.02207 0.07356,-0.03678c-0.03678,-0.05885 -0.00736,-0.07356 0.07356,-0.03678c0.08091,0.02942 0.11034,0.01471 0.08091,-0.02942c-0.02942,-0.04413 0.00736,-0.07356 0.08091,-0.0662c0.0662,0 0.11769,-0.03678 0.10298,-0.08827c-0.00736,-0.05885 0.01471,-0.08091 0.05885,-0.05149c0.08091,0.05149 0.38986,-0.13976 0.32365,-0.19861c-0.02207,-0.02207 0.02207,-0.03678 0.09562,-0.02942c0.07356,0 0.12505,-0.03678 0.11034,-0.08827c-0.00736,-0.05885 0.00736,-0.08091 0.04413,-0.05885c0.0662,0.03678 0.60317,-0.29423 0.60317,-0.37514c0,-0.02207 -0.05885,0.00736 -0.12505,0.05885c-0.11769,0.09562 -0.12505,0.08827 -0.03678,-0.02207c0.05885,-0.0662 0.13976,-0.11034 0.19125,-0.08827c0.05149,0.02207 0.15447,-0.04413 0.23538,-0.1324c0.13976,-0.16918 0.13976,-0.16918 -0.00736,-0.05885c-0.1324,0.10298 -0.13976,0.10298 -0.04413,-0.01471c0.05149,-0.07356 0.1324,-0.11034 0.16918,-0.08827c0.03678,0.02207 0.41928,-0.3163 0.85327,-0.75029c0.43399,-0.44135 0.6326,-0.66202 0.4487,-0.50755c-0.18389,0.16183 -0.11769,0.08091 0.14712,-0.18389c0.26481,-0.25745 0.40457,-0.40457 0.30159,-0.33101c-0.13976,0.11769 -0.1324,0.08827 0.0662,-0.16918c0.1324,-0.16918 0.25745,-0.30894 0.27952,-0.30894c0.02942,0 -0.01471,0.07356 -0.09562,0.16183c-0.07356,0.08827 -0.10298,0.1324 -0.05149,0.10298c0.05149,-0.02207 0.16183,-0.15447 0.25745,-0.27952c0.08827,-0.12505 0.11034,-0.20596 0.05149,-0.16918c-0.05149,0.03678 0.00736,-0.03678 0.13976,-0.16183c0.24274,-0.23538 0.30894,-0.36043 0.14712,-0.27952c-0.05149,0.02942 -0.01471,-0.01471 0.08091,-0.09562c0.09562,-0.07356 0.15447,-0.17654 0.12505,-0.22067c-0.02207,-0.04413 -0.00736,-0.10298 0.03678,-0.1324c0.05885,-0.02942 0.0662,-0.02207 0.03678,0.02942c-0.02942,0.05149 -0.03678,0.08827 -0.01471,0.08827c0.02207,0 0.09562,-0.10298 0.16183,-0.22803c0.0662,-0.1324 0.08091,-0.20596 0.02942,-0.17654c-0.0662,0.04413 -0.0662,0.01471 -0.00736,-0.10298c0.05149,-0.08091 0.10298,-0.15447 0.12505,-0.15447c0.02207,0 0.01471,0.03678 -0.00736,0.07356c-0.02207,0.03678 -0.02207,0.07356 0,0.07356c0.08827,0 0.48548,-0.95625 0.43399,-1.03716c-0.03678,-0.05885 -0.02207,-0.0662 0.04413,-0.02942c0.07356,0.04413 0.08827,0.02942 0.05149,-0.0662c-0.02942,-0.0662 -0.02207,-0.10298 0.01471,-0.08091c0.08827,0.05149 0.17654,-0.22803 0.11034,-0.33837c-0.03678,-0.05885 -0.02207,-0.0662 0.04413,-0.02942c0.07356,0.04413 0.08827,0.02207 0.05885,-0.09562c-0.02942,-0.08827 -0.01471,-0.14712 0.01471,-0.12505c0.08827,0.05149 0.16918,-0.23538 0.10298,-0.33837c-0.02942,-0.05149 -0.02207,-0.0662 0.02207,-0.04413c0.09562,0.05885 0.35308,-0.86062 0.27216,-0.98567c-0.02942,-0.05149 -0.02207,-0.07356 0.02942,-0.04413c0.08827,0.05885 0.19861,-0.49284 0.11769,-0.61788c-0.02942,-0.05149 -0.02207,-0.0662 0.02207,-0.04413c0.23538,0.14712 0.37514,-3.10413 0.18389,-4.28841c-0.1324,-0.84591 -0.39721,-1.9125 -0.46341,-1.87572c-0.02942,0.02207 -0.03678,-0.03678 -0.00736,-0.12505c0.02207,-0.09562 0.00736,-0.13976 -0.03678,-0.11034c-0.05149,0.03678 -0.0662,-0.00736 -0.03678,-0.11034c0.02942,-0.11769 0.01471,-0.13976 -0.05885,-0.09562c-0.05885,0.03678 -0.08091,0.02942 -0.04413,-0.02207c0.0662,-0.11034 -0.02942,-0.46341 -0.11034,-0.41192c-0.03678,0.02207 -0.04413,-0.02207 -0.01471,-0.08827c0.02942,-0.08091 0.02207,-0.11034 -0.02942,-0.08091c-0.05149,0.03678 -0.0662,-0.00736 -0.03678,-0.11034c0.02942,-0.11769 0.01471,-0.13976 -0.05885,-0.09562c-0.0662,0.03678 -0.08091,0.02942 -0.04413,-0.02942c0.07356,-0.11769 -0.02207,-0.38986 -0.11769,-0.33101c-0.04413,0.02942 -0.05885,0.01471 -0.03678,-0.02942c0.0662,-0.10298 -0.02207,-0.3163 -0.10298,-0.26481c-0.03678,0.02207 -0.04413,-0.02207 -0.01471,-0.08827c0.03678,-0.09562 0.02207,-0.11034 -0.05149,-0.0662c-0.05885,0.03678 -0.08091,0.02942 -0.05149,-0.02207c0.07356,-0.11034 -0.02207,-0.3163 -0.11769,-0.25745c-0.04413,0.02207 -0.05149,0.00736 -0.02207,-0.03678c0.05149,-0.08091 -0.13976,-0.52961 -0.22067,-0.52961c-0.02207,0 -0.01471,0.02942 0.00736,0.07356c0.02207,0.03678 0.02942,0.07356 0.00736,0.07356c-0.02207,0 -0.07356,-0.07356 -0.12505,-0.15447c-0.05885,-0.11034 -0.05885,-0.13976 0,-0.11034c0.15447,0.09562 0.08091,-0.03678 -0.11769,-0.22803c-0.11769,-0.11034 -0.16183,-0.16918 -0.10298,-0.1324c0.1324,0.07356 -0.1324,-0.37514 -0.28687,-0.50019c-0.09562,-0.07356 -0.09562,-0.07356 -0.00736,0.03678c0.05149,0.07356 0.08091,0.1324 0.05885,0.1324c-0.02207,0 -0.11769,-0.11034 -0.20596,-0.24274c-0.13976,-0.19861 -0.14712,-0.22067 -0.02942,-0.12505c0.34572,0.27216 -0.26481,-0.45606 -0.99303,-1.17692c-0.42663,-0.42663 -0.55904,-0.57375 -0.29423,-0.33101c0.27216,0.24274 0.15447,0.11769 -0.2501,-0.27952c-0.40457,-0.38986 -0.77971,-0.6988 -0.8312,-0.68409c-0.04413,0.02207 -0.12505,-0.02207 -0.18389,-0.08827c-0.08827,-0.11034 -0.08091,-0.11769 0.03678,-0.02207c0.0662,0.05149 0.12505,0.08091 0.12505,0.05885c0,-0.08827 -0.95625,-0.72086 -1.02245,-0.68409c-0.03678,0.02942 -0.09562,0.00736 -0.12505,-0.03678c-0.02942,-0.05885 -0.02207,-0.0662 0.02942,-0.03678c0.05149,0.02942 0.08827,0.03678 0.08827,0.01471c0,-0.08827 -0.52226,-0.34572 -0.60317,-0.29423c-0.05149,0.02942 -0.07356,0.02942 -0.04413,-0.00736c0.08091,-0.08091 -0.21332,-0.27952 -0.32365,-0.21332c-0.05149,0.03678 -0.05885,0.02207 -0.02207,-0.04413c0.04413,-0.07356 0.02942,-0.08827 -0.0662,-0.05149c-0.0662,0.02942 -0.11034,0.02207 -0.08827,-0.01471c0.05885,-0.08827 -0.5149,-0.33101 -0.62524,-0.26481c-0.05885,0.04413 -0.07356,0.02942 -0.02942,-0.03678c0.04413,-0.07356 0.02942,-0.08827 -0.0662,-0.05149c-0.0662,0.02942 -0.11034,0.02207 -0.08827,-0.01471c0.05149,-0.08091 -0.38986,-0.24274 -0.49284,-0.17654c-0.03678,0.02207 -0.05149,0.01471 -0.02942,-0.02942c0.05885,-0.08827 -0.94889,-0.41928 -1.06659,-0.34572c-0.05149,0.03678 -0.05885,0.02207 -0.02207,-0.04413c0.04413,-0.07356 0.00736,-0.08827 -0.1324,-0.05885c-0.11034,0.02207 -0.17654,0.01471 -0.16183,-0.01471c0.03678,-0.05885 -0.8312,-0.25745 -1.61827,-0.36779c-0.48548,-0.0662 -2.72163,-0.08827 -3.1262,-0.02942zM447.04374,295.92824c-0.02207,0 0.02207,0.0662 0.09562,0.14712c0.07356,0.08091 0.14712,0.14712 0.16918,0.14712c0.02207,0 -0.02207,-0.0662 -0.09562,-0.14712c-0.07356,-0.08091 -0.14712,-0.14712 -0.16918,-0.14712zM421.71785,299.65762l-0.2501,0.27952l0.27952,-0.2501c0.14712,-0.13976 0.27216,-0.26481 0.27216,-0.27952c0,-0.05885 -0.05885,0 -0.30159,0.2501zM421.06319,316.40669c0,0.01471 0.05885,0.07356 0.1324,0.12505c0.11034,0.09562 0.11769,0.08827 0.02207,-0.02942c-0.09562,-0.11769 -0.15447,-0.15447 -0.15447,-0.09562z"/><path d="M256.1,-53.3c1.3,1.6 1.2,1.7 -0.3,0.4c-1,-0.7 -1.8,-1.5 -1.8,-1.7c0,-0.8 0.8,-0.3 2.1,1.3z"/><path d="M263.2,-48c0.2,0 1.5,1.1 2.8,2.5c1.3,1.4 2.1,2.5 1.8,2.5c-0.2,0 -1.5,-1.1 -2.8,-2.5c-1.3,-1.4 -2.1,-2.5 -1.8,-2.5z"/><path d="M284.2,-27c0.3,0 1.3,0.9 2.3,2c1,1.1 1.6,2 1.3,2c-0.3,0 -1.3,-0.9 -2.3,-2c-1,-1.1 -1.6,-2 -1.3,-2z"/><path d="M288.2,-22c0.3,0 1.3,0.9 2.3,2c1,1.1 1.6,2 1.3,2c-0.3,0 -1.3,-0.9 -2.3,-2c-1,-1.1 -1.6,-2 -1.3,-2z"/><path d="M12.2,203c0.3,0 1.3,0.9 2.3,2c1,1.1 1.6,2 1.3,2c-0.3,0 -1.3,-0.9 -2.3,-2c-1,-1.1 -1.6,-2 -1.3,-2z"/><path d="M274.9,216c0.3,0 -1.5,2 -3.9,4.5c-2.4,2.5 -4.6,4.5 -4.9,4.5c-0.3,0 1.5,-2 3.9,-4.5c2.4,-2.5 4.6,-4.5 4.9,-4.5z"/><path d="M356.2,-86c0.3,0 1.3,0.9 2.3,2c1,1.1 1.6,2 1.3,2c-0.3,0 -1.3,-0.9 -2.3,-2c-1,-1.1 -1.6,-2 -1.3,-2z"/><path d="M-65.9,253.7c1.3,1.6 1.2,1.7 -0.3,0.4c-1,-0.7 -1.8,-1.5 -1.8,-1.7c0,-0.8 0.8,-0.3 2.1,1.3z"/><path d="M-55.9,267c0.3,0 2.3,1.8 4.4,4c2.1,2.2 3.7,4 3.4,4c-0.3,0 -2.3,-1.8 -4.4,-4c-2.1,-2.2 -3.7,-4 -3.4,-4z"/></g></g></svg>