<svg version="1.1" xmlns="http://www.w3.org/2000/svg" xmlns:xlink="http://www.w3.org/1999/xlink" width="106.66666" height="106.66666" viewBox="0,0,106.66666,106.66666"><g transform="translate(-186.66669,-126.66668)"><g data-paper-data="{&quot;isPaintingLayer&quot;:true}" fill-rule="nonzero" stroke-linecap="butt" stroke-linejoin="miter" stroke-miterlimit="10" stroke-dasharray="" stroke-dashoffset="0" style="mix-blend-mode: normal"><path d="M186.66669,180.00001c0,-29.45519 23.87815,-53.33333 53.33333,-53.33333c29.45519,0 53.33333,23.87815 53.33333,53.33333c0,29.45519 -23.87815,53.33333 -53.33333,53.33333c-29.45519,0 -53.33333,-23.87815 -53.33333,-53.33333z" fill="#000000" stroke="none" stroke-width="0"/><path d="M268.42278,151.68875v2.78336c0,1.7455 -1.07633,3.24604 -2.60511,3.88429c-0.48459,9.64874 -3.28743,56.29887 -3.41357,58.39479c-0.05382,0.90003 -0.7997,1.60232 -1.70143,1.60232h-41.40534c-0.90173,0 -1.64737,-0.70229 -1.70143,-1.60232c-0.12614,-2.09617 -2.92923,-48.74605 -3.41357,-58.39479c-1.52878,-0.63825 -2.60511,-2.13878 -2.60511,-3.88429v-2.78312c0,-2.32239 1.90574,-4.21205 4.24809,-4.21205h15.7882v-1.57432c0,-2.34674 1.88601,-4.25613 4.20451,-4.25613h8.3642c2.31801,0 4.20377,1.90939 4.20377,4.25589v1.57432h15.78845c2.3426,0 4.24834,1.88966 4.24834,4.21205zM235.02295,145.90262v1.57432h9.9541v-1.57432c0,-0.46706 -0.3565,-0.84694 -0.79483,-0.84694h-8.3642c-0.43857,0 -0.79532,0.37988 -0.79532,0.84694zM214.98617,151.68875v2.78312c0,0.44319 0.37647,0.80335 0.83891,0.80335h48.34913c0.46243,0 0.8389,-0.3604 0.8389,-0.80335v-2.78312c0,-0.44295 -0.37647,-0.80286 -0.8389,-0.80286h-48.34937c-0.46243,0 -0.83891,0.36016 -0.83891,0.80286zM262.38632,158.68441h-44.7741c0.49458,9.58445 2.78945,47.92006 3.28987,56.25966h38.19461c0.50042,-8.33961 2.79505,-46.67521 3.28962,-56.25966z" fill="#63f700" stroke="#63f700" stroke-width="1.5"/><text transform="translate(224.15865,195.95134) scale(0.68756,0.68756)" font-size="40" xml:space="preserve" fill="#63f700" fill-rule="nonzero" stroke="none" stroke-width="1" stroke-linecap="butt" stroke-linejoin="miter" stroke-miterlimit="10" stroke-dasharray="" stroke-dashoffset="0" font-family="Sans Serif" font-weight="normal" text-anchor="start" style="mix-blend-mode: normal"><tspan x="0" dy="0">{/}</tspan></text></g></g></svg>