<svg version="1.1" xmlns="http://www.w3.org/2000/svg" xmlns:xlink="http://www.w3.org/1999/xlink" width="106.66666" height="106.66666" viewBox="0,0,106.66666,106.66666"><g transform="translate(-186.66667,-126.66667)"><g data-paper-data="{&quot;isPaintingLayer&quot;:true}" fill-rule="nonzero" stroke-linecap="butt" stroke-linejoin="miter" stroke-miterlimit="10" stroke-dasharray="" stroke-dashoffset="0" style="mix-blend-mode: normal"><path d="M186.66667,180c0,-29.45519 23.87815,-53.33333 53.33333,-53.33333c29.45519,0 53.33333,23.87815 53.33333,53.33333c0,29.45519 -23.87815,53.33333 -53.33333,53.33333c-29.45519,0 -53.33333,-23.87815 -53.33333,-53.33333z" fill="#000000" stroke="none" stroke-width="0"/><g fill="#63f700" stroke="#62ff00" stroke-width="1.5"><path d="M269.12953,191.93502c2.93722,0 5.32693,2.38969 5.32693,5.32692v8.63097c0,2.93722 -2.38971,5.32693 -5.32693,5.32693h-58.25905c-2.93722,0 -5.32693,-2.38971 -5.32693,-5.32693v-8.63097c0,-2.93722 2.38971,-5.32692 5.32693,-5.32692h28.11808v-2.29261h-28.11808c-2.93722,0 -5.32693,-2.38971 -5.32693,-5.32693v-8.63097c0,-2.93722 2.38971,-5.32693 5.32693,-5.32693h28.11808v-2.29261h-28.11808c-2.93722,0 -5.32693,-2.38969 -5.32693,-5.32692v-8.63098c0,-2.93722 2.38971,-5.32693 5.32693,-5.32693h58.25905c2.93722,0 5.32693,2.38971 5.32693,5.32693v8.63098c0,2.93722 -2.38971,5.32692 -5.32693,5.32692h-28.11809v2.29261h28.11809c2.93722,0 5.32693,2.38971 5.32693,5.32693v8.63097c0,2.93722 -2.38971,5.32693 -5.32693,5.32693h-28.11809v2.29261zM272.43358,162.73805v-8.63098c0,-1.82195 -1.48225,-3.30405 -3.30405,-3.30405h-58.25905c-1.82182,0 -3.30405,1.48211 -3.30405,3.30405v8.63098c0,1.82195 1.48225,3.30405 3.30405,3.30405h58.25905c1.82182,0 3.30405,-1.48211 3.30405,-3.30405zM272.43358,184.31549v-8.63097c0,-1.82194 -1.48225,-3.30405 -3.30405,-3.30405h-58.25905c-1.82182,0 -3.30405,1.48211 -3.30405,3.30405v8.63097c0,1.82194 1.48225,3.30405 3.30405,3.30405h58.25905c1.82182,0 3.30405,-1.48211 3.30405,-3.30405zM207.56641,197.26195v8.63097c0,1.82194 1.48225,3.30404 3.30405,3.30404h58.25905c1.82182,0 3.30405,-1.4821 3.30405,-3.30404v-8.63097c0,-1.82195 -1.48225,-3.30405 -3.30405,-3.30405h-58.25905c-1.82182,0 -3.30405,1.48211 -3.30405,3.30405z"/><path d="M215.18595,205.8255c-2.34236,0 -4.24806,-1.9057 -4.24806,-4.24806c0,-2.34236 1.9057,-4.24805 4.24806,-4.24805c2.34236,0 4.24806,1.90568 4.24806,4.24805c0,2.34236 -1.9057,4.24806 -4.24806,4.24806zM215.18595,199.35227c-1.22694,0 -2.22518,0.99822 -2.22518,2.22517c0,1.22696 0.99824,2.22518 2.22518,2.22518c1.22694,0 2.22517,-0.99824 2.22517,-2.22518c0,-1.22694 -0.99822,-2.22517 -2.22517,-2.22517z"/><path d="M224.8958,204.74663c-1.74751,0 -3.16918,-1.42169 -3.16918,-3.16919c0,-1.74751 1.42167,-3.16918 3.16918,-3.16918c1.74751,0 3.16918,1.42167 3.16918,3.16918c0,1.74752 -1.42167,3.16919 -3.16918,3.16919zM224.89578,200.43113c-0.63208,0 -1.1463,0.51423 -1.1463,1.14631c0,0.63208 0.51421,1.1463 1.1463,1.1463c0.63208,0 1.14631,-0.51421 1.14631,-1.1463c0,-0.63208 -0.51423,-1.14631 -1.14631,-1.14631z"/><path d="M215.18595,184.24806c-2.34236,0 -4.24806,-1.9057 -4.24806,-4.24806c0,-2.34236 1.9057,-4.24806 4.24806,-4.24806c2.34236,0 4.24806,1.9057 4.24806,4.24806c0,2.34236 -1.9057,4.24806 -4.24806,4.24806zM215.18595,177.77484c-1.22694,0 -2.22518,0.99822 -2.22518,2.22517c0,1.22694 0.99824,2.22517 2.22518,2.22517c1.22694,0 2.22517,-0.99822 2.22517,-2.22517c0,-1.22694 -0.99822,-2.22517 -2.22517,-2.22517z"/><path d="M224.8958,183.16918c-1.74751,0 -3.16918,-1.42167 -3.16918,-3.16918c0,-1.74751 1.42167,-3.16918 3.16918,-3.16918c1.74751,0 3.16918,1.42167 3.16918,3.16918c0,1.74751 -1.42167,3.16918 -3.16918,3.16918zM224.89578,178.8537c-0.63208,0 -1.1463,0.51421 -1.1463,1.1463c0,0.63208 0.51421,1.1463 1.1463,1.1463c0.63208,0 1.14631,-0.51421 1.14631,-1.1463c0,-0.63208 -0.51423,-1.1463 -1.14631,-1.1463z"/><path d="M266.97178,178.8537h-35.60276c-0.55859,0 -1.01144,-0.45272 -1.01144,-1.01144c0,-0.55872 0.45285,-1.01144 1.01144,-1.01144h35.60276c0.55859,0 1.01146,0.45272 1.01146,1.01144c0,0.55872 -0.45287,1.01144 -1.01146,1.01144z"/><path d="M230.35757,182.15775c0,-0.55872 0.45285,-1.01144 1.01144,-1.01144h35.60276c0.55859,0 1.01146,0.45272 1.01146,1.01144c0,0.55872 -0.45287,1.01144 -1.01146,1.01144h-35.60276c-0.55859,0 -1.01144,-0.45272 -1.01144,-1.01144z"/><path d="M267.98323,199.41969c0,0.55872 -0.45287,1.01144 -1.01146,1.01144h-35.60276c-0.55859,0 -1.01144,-0.45272 -1.01144,-1.01144c0,-0.55872 0.45285,-1.01144 1.01144,-1.01144h35.60276c0.55859,0 1.01146,0.45272 1.01146,1.01144z"/><path d="M231.36903,202.72374h35.60276c0.55859,0 1.01146,0.45272 1.01146,1.01144c0,0.55872 -0.45287,1.01144 -1.01146,1.01144h-35.60276c-0.55859,0 -1.01144,-0.45272 -1.01144,-1.01144c0,-0.55872 0.45285,-1.01144 1.01144,-1.01144z"/><path d="M215.18595,162.67064c-2.34236,0 -4.24806,-1.9057 -4.24806,-4.24806c0,-2.34236 1.9057,-4.24806 4.24806,-4.24806c2.34236,0 4.24806,1.9057 4.24806,4.24806c0,2.34236 -1.9057,4.24806 -4.24806,4.24806zM215.18595,156.19741c-1.22694,0 -2.22518,0.99822 -2.22518,2.22517c0,1.22694 0.99824,2.22517 2.22518,2.22517c1.22694,0 2.22517,-0.99822 2.22517,-2.22517c0,-1.22694 -0.99822,-2.22517 -2.22517,-2.22517z"/><path d="M224.8958,161.59176c-1.74751,0 -3.16918,-1.42167 -3.16918,-3.16918c0,-1.74751 1.42167,-3.16918 3.16918,-3.16918c1.74751,0 3.16918,1.42167 3.16918,3.16918c0,1.74751 -1.42167,3.16918 -3.16918,3.16918zM224.89578,157.27628c-0.63208,0 -1.1463,0.51421 -1.1463,1.1463c0,0.63208 0.51421,1.14631 1.1463,1.14631c0.63208,0 1.14631,-0.51423 1.14631,-1.14631c0,-0.63208 -0.51423,-1.1463 -1.14631,-1.1463z"/><path d="M266.97178,157.27628h-35.60276c-0.55859,0 -1.01144,-0.45272 -1.01144,-1.01144c0,-0.55872 0.45285,-1.01144 1.01144,-1.01144h35.60276c0.55859,0 1.01146,0.45272 1.01146,1.01144c0,0.55872 -0.45287,1.01144 -1.01146,1.01144z"/><path d="M230.35757,160.58032c0,-0.55872 0.45285,-1.01144 1.01144,-1.01144h35.60276c0.55859,0 1.01146,0.45272 1.01146,1.01144c0,0.55872 -0.45287,1.01144 -1.01146,1.01144h-35.60276c-0.55859,0 -1.01144,-0.45272 -1.01144,-1.01144z"/></g></g></g></svg>