<svg version="1.1" xmlns="http://www.w3.org/2000/svg" xmlns:xlink="http://www.w3.org/1999/xlink" width="106.66666" height="106.66666" viewBox="0,0,106.66666,106.66666"><g transform="translate(-186.66669,-126.66668)"><g data-paper-data="{&quot;isPaintingLayer&quot;:true}" fill-rule="nonzero" stroke-linecap="butt" stroke-linejoin="miter" stroke-miterlimit="10" stroke-dasharray="" stroke-dashoffset="0" style="mix-blend-mode: normal"><path d="M186.66669,180.00001c0,-29.45519 23.87815,-53.33333 53.33333,-53.33333c29.45519,0 53.33333,23.87815 53.33333,53.33333c0,29.45519 -23.87815,53.33333 -53.33333,53.33333c-29.45519,0 -53.33333,-23.87815 -53.33333,-53.33333z" fill="#000000" stroke="none" stroke-width="0"/><path d="M217.38929,148.38984l0.25231,0.13164c0.13164,0.07679 4.36607,2.51214 9.40132,5.4192c5.03525,2.90706 17.17908,9.91691 26.98629,15.57745c9.80721,5.64957 17.88116,10.33377 17.95795,10.41056c0.08776,0.08776 -1.10797,0.83372 -4.82681,2.96191c-3.83951,2.20498 -47.16018,27.19472 -49.29934,28.4453l-0.47171,0.27425v-31.60467z" fill="#63f700" stroke="none" stroke-width="1"/><text transform="translate(223.12501,185.76875) scale(0.5,0.5)" font-size="40" xml:space="preserve" fill="#000000" fill-rule="nonzero" stroke="#000000" stroke-width="2" stroke-linecap="butt" stroke-linejoin="miter" stroke-miterlimit="10" stroke-dasharray="" stroke-dashoffset="0" font-family="&quot;Flexi_IBM_VGA_True_437&quot;, Sans Serif" font-weight="normal" text-anchor="start" style="mix-blend-mode: normal"><tspan x="0" dy="0">Play</tspan></text></g></g></svg>